<svg width="20" height="20" viewBox="0 0 20 20" fill="none" xmlns="http://www.w3.org/2000/svg">
<path d="M10.0623 10.979C10.2429 10.979 10.3922 10.92 10.5103 10.8019C10.6283 10.6839 10.6873 10.5346 10.6873 10.354V6.31234C10.6873 6.14567 10.6248 6.00331 10.4998 5.88525C10.3748 5.7672 10.229 5.70817 10.0623 5.70817C9.88178 5.70817 9.73248 5.7672 9.61442 5.88525C9.49637 6.00331 9.43734 6.15261 9.43734 6.33317V10.3748C9.43734 10.5415 9.49984 10.6839 9.62484 10.8019C9.74984 10.92 9.89567 10.979 10.0623 10.979ZM9.99984 14.1665C10.1943 14.1665 10.3575 14.1005 10.4894 13.9686C10.6214 13.8366 10.6873 13.6734 10.6873 13.479C10.6873 13.2846 10.6214 13.1214 10.4894 12.9894C10.3575 12.8575 10.1943 12.7915 9.99984 12.7915C9.80539 12.7915 9.6422 12.8575 9.51025 12.9894C9.37831 13.1214 9.31234 13.2846 9.31234 13.479C9.31234 13.6734 9.37831 13.8366 9.51025 13.9686C9.6422 14.1005 9.80539 14.1665 9.99984 14.1665ZM9.99984 18.3332C8.81928 18.3332 7.72206 18.1214 6.70817 17.6978C5.69428 17.2741 4.81234 16.6873 4.06234 15.9373C3.31234 15.1873 2.72553 14.3054 2.30192 13.2915C1.87831 12.2776 1.6665 11.1804 1.6665 9.99984C1.6665 8.83317 1.87831 7.74289 2.30192 6.729C2.72553 5.71511 3.31234 4.83317 4.06234 4.08317C4.81234 3.33317 5.69428 2.74289 6.70817 2.31234C7.72206 1.88178 8.81928 1.6665 9.99984 1.6665C11.1665 1.6665 12.2568 1.88178 13.2707 2.31234C14.2846 2.74289 15.1665 3.33317 15.9165 4.08317C16.6665 4.83317 17.2568 5.71511 17.6873 6.729C18.1179 7.74289 18.3332 8.83317 18.3332 9.99984C18.3332 11.1804 18.1179 12.2776 17.6873 13.2915C17.2568 14.3054 16.6665 15.1873 15.9165 15.9373C15.1665 16.6873 14.2846 17.2741 13.2707 17.6978C12.2568 18.1214 11.1665 18.3332 9.99984 18.3332Z" fill="#FF1F00"/>
</svg>
