<svg width="28" height="28" viewBox="0 0 28 28" fill="none" xmlns="http://www.w3.org/2000/svg">
<path d="M11.025 20.475C10.9083 20.475 10.8014 20.4555 10.7042 20.4167C10.607 20.3778 10.5097 20.3097 10.4125 20.2125L5.13335 14.9333C4.95835 14.7583 4.87085 14.5444 4.87085 14.2917C4.87085 14.0389 4.95835 13.825 5.13335 13.65C5.30835 13.475 5.51252 13.3875 5.74585 13.3875C5.97918 13.3875 6.18335 13.475 6.35835 13.65L11.025 18.3167L21.6125 7.72916C21.7875 7.55416 21.9965 7.46666 22.2396 7.46666C22.4827 7.46666 22.6917 7.55416 22.8667 7.72916C23.0417 7.90416 23.1292 8.11319 23.1292 8.35624C23.1292 8.5993 23.0417 8.80833 22.8667 8.98333L11.6375 20.2125C11.5403 20.3097 11.4431 20.3778 11.3458 20.4167C11.2486 20.4555 11.1417 20.475 11.025 20.475Z" fill="#52596E"/>
</svg>
