<svg width="30" height="31" viewBox="0 0 30 31" fill="none" xmlns="http://www.w3.org/2000/svg">
<path fill-rule="evenodd" clip-rule="evenodd" d="M14.7694 27.9093C7.97551 27.9093 2.46167 22.4078 2.46167 15.6016C2.46167 8.80779 7.97551 3.29395 14.7694 3.29395C21.5755 3.29395 27.077 8.80779 27.077 15.6016C27.077 22.4078 21.5755 27.9093 14.7694 27.9093ZM18.6953 20.1677C18.843 20.2538 19.003 20.3031 19.1753 20.3031C19.483 20.3031 19.7907 20.1431 19.963 19.8477C20.2214 19.4169 20.086 18.8508 19.643 18.58L15.2614 15.9708V10.2846C15.2614 9.76769 14.843 9.36154 14.3384 9.36154C13.8337 9.36154 13.4153 9.76769 13.4153 10.2846V16.5C13.4153 16.82 13.5876 17.1154 13.8707 17.2877L18.6953 20.1677Z" fill="#2EC06F"/>
</svg>
