<svg width="26" height="26" viewBox="0 0 26 26" fill="none" xmlns="http://www.w3.org/2000/svg">
<path d="M16.9375 18.21C17.125 18.3975 17.3438 18.4912 17.5938 18.4912C17.8438 18.4912 18.0729 18.387 18.2812 18.1787C18.4896 17.9704 18.599 17.7308 18.6094 17.46C18.6198 17.1891 18.5208 16.96 18.3125 16.7725L14.0312 12.4912V7.11621C14.0312 6.86621 13.9427 6.65267 13.7656 6.47559C13.5885 6.2985 13.3646 6.20996 13.0938 6.20996C12.8229 6.20996 12.599 6.2985 12.4219 6.47559C12.2448 6.65267 12.1562 6.87663 12.1562 7.14746V12.8662C12.1562 12.9912 12.1771 13.1058 12.2188 13.21C12.2604 13.3141 12.3229 13.4183 12.4062 13.5225L16.9375 18.21ZM13 25.3662C11.2917 25.3662 9.67708 25.0381 8.15625 24.3818C6.63542 23.7256 5.30729 22.8298 4.17188 21.6943C3.03646 20.5589 2.14062 19.2308 1.48437 17.71C0.828125 16.1891 0.5 14.5745 0.5 12.8662C0.5 11.1579 0.828125 9.54329 1.48437 8.02246C2.14062 6.50163 3.03646 5.1735 4.17188 4.03809C5.30729 2.90267 6.63542 2.00684 8.15625 1.35059C9.67708 0.694336 11.2917 0.366211 13 0.366211C14.7083 0.366211 16.3229 0.694336 17.8438 1.35059C19.3646 2.00684 20.6927 2.90267 21.8281 4.03809C22.9635 5.1735 23.8594 6.50163 24.5156 8.02246C25.1719 9.54329 25.5 11.1579 25.5 12.8662C25.5 14.5745 25.1719 16.1891 24.5156 17.71C23.8594 19.2308 22.9635 20.5589 21.8281 21.6943C20.6927 22.8298 19.3646 23.7256 17.8438 24.3818C16.3229 25.0381 14.7083 25.3662 13 25.3662ZM13 23.4912C15.9167 23.4912 18.4167 22.4495 20.5 20.3662C22.5833 18.2829 23.625 15.7829 23.625 12.8662C23.625 9.94954 22.5833 7.44954 20.5 5.36621C18.4167 3.28288 15.9167 2.24121 13 2.24121C10.0833 2.24121 7.58333 3.28288 5.5 5.36621C3.41667 7.44954 2.375 9.94954 2.375 12.8662C2.375 15.7829 3.41667 18.2829 5.5 20.3662C7.58333 22.4495 10.0833 23.4912 13 23.4912Z" fill="#240DFF"/>
</svg>
