<svg width="28" height="28" viewBox="0 0 28 28" fill="none" xmlns="http://www.w3.org/2000/svg">
<path d="M4.08337 4.66666L6.24171 9.1H10.0334L7.87504 4.66666H10.4709L12.6292 9.1H16.4209L14.2625 4.66666H16.8584L19.0167 9.1H22.8084L20.65 4.66666H23.9167C24.3834 4.66666 24.7917 4.84166 25.1417 5.19166C25.4917 5.54166 25.6667 5.95 25.6667 6.41666V21.5833C25.6667 22.05 25.4917 22.4583 25.1417 22.8083C24.7917 23.1583 24.3834 23.3333 23.9167 23.3333H4.08337C3.61671 23.3333 3.20837 23.1583 2.85837 22.8083C2.50837 22.4583 2.33337 22.05 2.33337 21.5833V6.41666C2.33337 5.95 2.50837 5.54166 2.85837 5.19166C3.20837 4.84166 3.61671 4.66666 4.08337 4.66666ZM4.08337 10.85V21.5833H23.9167V10.85H4.08337ZM4.08337 10.85V21.5833V10.85Z" fill="#52596E"/>
</svg>
