<svg width="28" height="28" viewBox="0 0 28 28" fill="none" xmlns="http://www.w3.org/2000/svg">
<path d="M8.925 16.508C8.59444 16.508 8.31736 16.3962 8.09375 16.1726C7.87014 15.949 7.75833 15.6719 7.75833 15.3413C7.75833 15.0108 7.87014 14.7337 8.09375 14.5101C8.31736 14.2865 8.59444 14.1747 8.925 14.1747C9.25556 14.1747 9.53264 14.2865 9.75625 14.5101C9.97986 14.7337 10.0917 15.0108 10.0917 15.3413C10.0917 15.6719 9.97986 15.949 9.75625 16.1726C9.53264 16.3962 9.25556 16.508 8.925 16.508ZM14.0875 16.508C13.7569 16.508 13.4799 16.3962 13.2562 16.1726C13.0326 15.949 12.9208 15.6719 12.9208 15.3413C12.9208 15.0108 13.0326 14.7337 13.2562 14.5101C13.4799 14.2865 13.7569 14.1747 14.0875 14.1747C14.4181 14.1747 14.6951 14.2865 14.9188 14.5101C15.1424 14.7337 15.2542 15.0108 15.2542 15.3413C15.2542 15.6719 15.1424 15.949 14.9188 16.1726C14.6951 16.3962 14.4181 16.508 14.0875 16.508ZM19.0458 16.508C18.7153 16.508 18.4382 16.3962 18.2146 16.1726C17.991 15.949 17.8792 15.6719 17.8792 15.3413C17.8792 15.0108 17.991 14.7337 18.2146 14.5101C18.4382 14.2865 18.7153 14.1747 19.0458 14.1747C19.3764 14.1747 19.6535 14.2865 19.8771 14.5101C20.1007 14.7337 20.2125 15.0108 20.2125 15.3413C20.2125 15.6719 20.1007 15.949 19.8771 16.1726C19.6535 16.3962 19.3764 16.508 19.0458 16.508ZM5.25 25.6663C4.78333 25.6663 4.375 25.4913 4.025 25.1413C3.675 24.7913 3.5 24.383 3.5 23.9163V5.83301C3.5 5.36634 3.675 4.95801 4.025 4.60801C4.375 4.25801 4.78333 4.08301 5.25 4.08301H7.14583V3.23717C7.14583 2.9844 7.23333 2.77051 7.40833 2.59551C7.58333 2.42051 7.80694 2.33301 8.07917 2.33301C8.35139 2.33301 8.57986 2.42051 8.76458 2.59551C8.94931 2.77051 9.04167 2.99412 9.04167 3.26634V4.08301H18.9583V3.23717C18.9583 2.9844 19.0458 2.77051 19.2208 2.59551C19.3958 2.42051 19.6194 2.33301 19.8917 2.33301C20.1639 2.33301 20.3924 2.42051 20.5771 2.59551C20.7618 2.77051 20.8542 2.99412 20.8542 3.26634V4.08301H22.75C23.2167 4.08301 23.625 4.25801 23.975 4.60801C24.325 4.95801 24.5 5.36634 24.5 5.83301V23.9163C24.5 24.383 24.325 24.7913 23.975 25.1413C23.625 25.4913 23.2167 25.6663 22.75 25.6663H5.25ZM5.25 23.9163H22.75V11.3747H5.25V23.9163ZM5.25 9.62467H22.75V5.83301H5.25V9.62467ZM5.25 9.62467V5.83301V9.62467Z" fill="#52596E"/>
</svg>
