<svg width="28" height="28" viewBox="0 0 28 28" fill="none" xmlns="http://www.w3.org/2000/svg">
<path d="M7.61246 24.5001C7.14579 24.5001 6.73746 24.3251 6.38746 23.9751C6.03746 23.6251 5.86246 23.2168 5.86246 22.7501V6.12509H5.54163C5.28885 6.12509 5.07982 6.04245 4.91454 5.87717C4.74926 5.7119 4.66663 5.50287 4.66663 5.25009C4.66663 4.99731 4.74926 4.78829 4.91454 4.62301C5.07982 4.45773 5.28885 4.37509 5.54163 4.37509H10.15C10.15 4.12231 10.2326 3.91329 10.3979 3.74801C10.5632 3.58273 10.7722 3.50009 11.025 3.50009H16.975C17.2277 3.50009 17.4368 3.58273 17.602 3.74801C17.7673 3.91329 17.85 4.12231 17.85 4.37509H22.4583C22.7111 4.37509 22.9201 4.45773 23.0854 4.62301C23.2507 4.78829 23.3333 4.99731 23.3333 5.25009C23.3333 5.50287 23.2507 5.7119 23.0854 5.87717C22.9201 6.04245 22.7111 6.12509 22.4583 6.12509H22.1375V22.7501C22.1375 23.2168 21.9625 23.6251 21.6125 23.9751C21.2625 24.3251 20.8541 24.5001 20.3875 24.5001H7.61246ZM7.61246 6.12509V22.7501H20.3875V6.12509H7.61246ZM10.7041 19.3668C10.7041 19.6195 10.7868 19.8286 10.952 19.9938C11.1173 20.1591 11.3263 20.2418 11.5791 20.2418C11.8319 20.2418 12.0409 20.1591 12.2062 19.9938C12.3715 19.8286 12.4541 19.6195 12.4541 19.3668V9.47926C12.4541 9.22648 12.3715 9.01745 12.2062 8.85217C12.0409 8.6869 11.8319 8.60426 11.5791 8.60426C11.3263 8.60426 11.1173 8.6869 10.952 8.85217C10.7868 9.01745 10.7041 9.22648 10.7041 9.47926V19.3668ZM15.5458 19.3668C15.5458 19.6195 15.6284 19.8286 15.7937 19.9938C15.959 20.1591 16.168 20.2418 16.4208 20.2418C16.6736 20.2418 16.8826 20.1591 17.0479 19.9938C17.2132 19.8286 17.2958 19.6195 17.2958 19.3668V9.47926C17.2958 9.22648 17.2132 9.01745 17.0479 8.85217C16.8826 8.6869 16.6736 8.60426 16.4208 8.60426C16.168 8.60426 15.959 8.6869 15.7937 8.85217C15.6284 9.01745 15.5458 9.22648 15.5458 9.47926V19.3668ZM7.61246 6.12509V22.7501V6.12509Z" fill="#52596E"/>
</svg>
