<svg width="28" height="28" viewBox="0 0 28 28" fill="none" xmlns="http://www.w3.org/2000/svg">
<path d="M4.08337 28C3.59726 28 3.18407 27.825 2.84379 27.475C2.50351 27.125 2.33337 26.7069 2.33337 26.2208C2.33337 25.7347 2.50837 25.3215 2.85837 24.9812C3.20837 24.641 3.62643 24.4708 4.11254 24.4708H23.9167C24.4028 24.4708 24.816 24.641 25.1563 24.9812C25.4966 25.3215 25.6667 25.7347 25.6667 26.2208C25.6667 26.7069 25.4917 27.125 25.1417 27.475C24.7917 27.825 24.3737 28 23.8875 28H4.08337ZM5.60004 21.3792C5.34726 21.3792 5.13824 21.2965 4.97296 21.1312C4.80768 20.966 4.72504 20.7569 4.72504 20.5042V17.85C4.72504 17.7333 4.74449 17.6264 4.78337 17.5292C4.82226 17.4319 4.89032 17.3347 4.98754 17.2375L15.6042 6.62083L19.4834 10.5L8.86671 21.1167C8.76949 21.2139 8.67226 21.2819 8.57504 21.3208C8.47782 21.3597 8.37087 21.3792 8.25421 21.3792H5.60004ZM6.47504 19.6292H7.78754L16.975 10.4417L15.6625 9.12916L6.47504 18.3167V19.6292ZM20.7667 9.21666L16.8875 5.33749L19.3375 2.88749C19.5514 2.63472 19.7945 2.50347 20.0667 2.49374C20.3389 2.48402 20.6112 2.61527 20.8834 2.88749L23.1584 5.16249C23.4112 5.41527 23.5375 5.68263 23.5375 5.96458C23.5375 6.24652 23.4306 6.51388 23.2167 6.76666L20.7667 9.21666Z" fill="#52596E"/>
</svg>
