<svg width="30" height="30" viewBox="0 0 30 30" fill="none" xmlns="http://www.w3.org/2000/svg">
<rect width="30" height="30" rx="6" fill="white"/>
<path d="M14.7451 20.8702H21.637" stroke="#091C32" stroke-width="1.37838" stroke-linecap="round" stroke-linejoin="round"/>
<path d="M18.1906 8.23616C18.4953 7.93152 18.9084 7.76038 19.3393 7.76038C19.5526 7.76038 19.7638 7.80239 19.9609 7.88403C20.158 7.96566 20.3371 8.08532 20.4879 8.23616C20.6388 8.387 20.7584 8.56608 20.8401 8.76317C20.9217 8.96025 20.9637 9.17149 20.9637 9.38481C20.9637 9.59813 20.9217 9.80937 20.8401 10.0065C20.7584 10.2035 20.6388 10.3826 20.4879 10.5335L10.9158 20.1055L7.85278 20.8713L8.61855 17.8082L18.1906 8.23616Z" stroke="#091C32" stroke-width="1.37838" stroke-linecap="round" stroke-linejoin="round"/>
</svg>
