<svg width="28" height="28" viewBox="0 0 28 28" fill="none" xmlns="http://www.w3.org/2000/svg">
<path d="M4.08301 23.3337C3.61634 23.3337 3.20801 23.1587 2.85801 22.8087C2.50801 22.4587 2.33301 22.0503 2.33301 21.5837V6.41699C2.33301 5.95033 2.50801 5.54199 2.85801 5.19199C3.20801 4.84199 3.61634 4.66699 4.08301 4.66699H23.9163C24.383 4.66699 24.7913 4.84199 25.1413 5.19199C25.4913 5.54199 25.6663 5.95033 25.6663 6.41699V21.5837C25.6663 22.0503 25.4913 22.4587 25.1413 22.8087C24.7913 23.1587 24.383 23.3337 23.9163 23.3337H4.08301ZM23.9163 8.02116L14.4663 14.2045C14.3886 14.2434 14.3156 14.2774 14.2476 14.3066C14.1795 14.3357 14.0969 14.3503 13.9997 14.3503C13.9025 14.3503 13.8198 14.3357 13.7518 14.3066C13.6837 14.2774 13.6108 14.2434 13.533 14.2045L4.08301 8.02116V21.5837H23.9163V8.02116ZM13.9997 12.7753L23.7997 6.41699H4.22884L13.9997 12.7753ZM4.08301 8.22533C4.08301 8.16699 4.08301 8.08921 4.08301 7.99199C4.08301 7.89477 4.08301 7.78783 4.08301 7.67116C4.08301 7.41838 4.08301 7.21908 4.08301 7.07324C4.08301 6.92741 4.08301 6.93227 4.08301 7.08783C4.08301 6.93227 4.08301 6.92255 4.08301 7.05866C4.08301 7.19477 4.08301 7.38921 4.08301 7.64199C4.08301 7.75866 4.08301 7.87046 4.08301 7.97741C4.08301 8.08435 4.08301 8.16699 4.08301 8.22533Z" fill="#52596E"/>
</svg>
