<svg width="18" height="18" viewBox="0 0 18 18" fill="none" xmlns="http://www.w3.org/2000/svg">
<path d="M0.75 15.95C0.533333 15.95 0.354167 15.8792 0.2125 15.7375C0.0708334 15.5958 0 15.4167 0 15.2C0 14.9833 0.0708334 14.8042 0.2125 14.6625C0.354167 14.5208 0.533333 14.45 0.75 14.45H5.425C5.64167 14.45 5.82083 14.5208 5.9625 14.6625C6.10417 14.8042 6.175 14.9833 6.175 15.2C6.175 15.4167 6.10417 15.5958 5.9625 15.7375C5.82083 15.8792 5.64167 15.95 5.425 15.95H0.75ZM0.75 3.55C0.533333 3.55 0.354167 3.47917 0.2125 3.3375C0.0708334 3.19583 0 3.01667 0 2.8C0 2.58333 0.0708334 2.40417 0.2125 2.2625C0.354167 2.12083 0.533333 2.05 0.75 2.05H9.575C9.79167 2.05 9.97083 2.12083 10.1125 2.2625C10.2542 2.40417 10.325 2.58333 10.325 2.8C10.325 3.01667 10.2542 3.19583 10.1125 3.3375C9.97083 3.47917 9.79167 3.55 9.575 3.55H0.75ZM8.425 18C8.20833 18 8.02917 17.9292 7.8875 17.7875C7.74583 17.6458 7.675 17.4667 7.675 17.25V13.125C7.675 12.9083 7.74583 12.7292 7.8875 12.5875C8.02917 12.4458 8.20833 12.375 8.425 12.375C8.64167 12.375 8.82083 12.4458 8.9625 12.5875C9.10417 12.7292 9.175 12.9083 9.175 13.125V14.45H17.25C17.4667 14.45 17.6458 14.5208 17.7875 14.6625C17.9292 14.8042 18 14.9833 18 15.2C18 15.4167 17.9292 15.5958 17.7875 15.7375C17.6458 15.8792 17.4667 15.95 17.25 15.95H9.175V17.25C9.175 17.4667 9.10417 17.6458 8.9625 17.7875C8.82083 17.9292 8.64167 18 8.425 18ZM5.425 11.8C5.20833 11.8 5.02917 11.7292 4.8875 11.5875C4.74583 11.4458 4.675 11.2667 4.675 11.05V9.75H0.75C0.533333 9.75 0.354167 9.67917 0.2125 9.5375C0.0708334 9.39583 0 9.21667 0 9C0 8.78333 0.0708334 8.60417 0.2125 8.4625C0.354167 8.32083 0.533333 8.25 0.75 8.25H4.675V6.9C4.675 6.68333 4.74583 6.50417 4.8875 6.3625C5.02917 6.22083 5.20833 6.15 5.425 6.15C5.64167 6.15 5.82083 6.22083 5.9625 6.3625C6.10417 6.50417 6.175 6.68333 6.175 6.9V11.05C6.175 11.2667 6.10417 11.4458 5.9625 11.5875C5.82083 11.7292 5.64167 11.8 5.425 11.8ZM8.425 9.75C8.20833 9.75 8.02917 9.67917 7.8875 9.5375C7.74583 9.39583 7.675 9.21667 7.675 9C7.675 8.78333 7.74583 8.60417 7.8875 8.4625C8.02917 8.32083 8.20833 8.25 8.425 8.25H17.25C17.4667 8.25 17.6458 8.32083 17.7875 8.4625C17.9292 8.60417 18 8.78333 18 9C18 9.21667 17.9292 9.39583 17.7875 9.5375C17.6458 9.67917 17.4667 9.75 17.25 9.75H8.425ZM12.575 5.625C12.3583 5.625 12.1792 5.55417 12.0375 5.4125C11.8958 5.27083 11.825 5.09167 11.825 4.875V0.75C11.825 0.533333 11.8958 0.354167 12.0375 0.2125C12.1792 0.0708334 12.3583 0 12.575 0C12.7917 0 12.9708 0.0708334 13.1125 0.2125C13.2542 0.354167 13.325 0.533333 13.325 0.75V2.05H17.25C17.4667 2.05 17.6458 2.12083 17.7875 2.2625C17.9292 2.40417 18 2.58333 18 2.8C18 3.01667 17.9292 3.19583 17.7875 3.3375C17.6458 3.47917 17.4667 3.55 17.25 3.55H13.325V4.875C13.325 5.09167 13.2542 5.27083 13.1125 5.4125C12.9708 5.55417 12.7917 5.625 12.575 5.625Z" fill="#240DFF"/>
</svg>
