<svg width="272" height="138" viewBox="0 0 272 138" fill="none" xmlns="http://www.w3.org/2000/svg">
<path d="M14.6128 57.2419C11.2871 56.9395 9.57392 58.3504 9.57392 61.273V61.4745H14.6128V67.4205H9.57392V85.3589H3.42646V67.4205H0V61.4745H3.42646V61.273C3.42646 57.9473 4.33346 55.3271 6.24824 53.6139C8.16302 51.9006 10.884 51.0944 14.6128 51.296V57.2419Z" fill="#091C32"/>
<path d="M33.156 61.4746H39.3035V85.2582H33.156V82.638C31.6444 84.8551 29.3265 85.9637 26.1016 85.9637C23.4813 85.9637 21.365 85.0567 19.6518 83.3434C17.9385 81.6302 17.1323 79.2116 17.1323 76.0874V61.4746H23.179V75.382C23.179 76.9944 23.5821 78.2038 24.4891 79.01C25.3961 79.8162 26.5047 80.3201 27.9156 80.3201C29.528 80.3201 30.7374 79.8162 31.7451 78.8084C32.6522 77.8007 33.156 76.3898 33.156 74.3742V61.4746Z" fill="#091C32"/>
<path d="M58.5522 67.4205H53.211V77.2968C53.211 78.103 53.4125 78.7076 53.8156 79.1108C54.2187 79.5139 54.8234 79.7154 55.6296 79.7154C56.4359 79.7154 57.4436 79.7154 58.5522 79.7154V85.2582C54.3195 85.7621 51.3969 85.359 49.5829 84.0489C47.8697 82.7388 46.9627 80.5217 46.9627 77.196V67.3197H42.8308V61.4746H46.9627V56.6372L53.1102 54.8232V61.4746H58.4514V67.4205H58.5522Z" fill="#091C32"/>
<path d="M79.01 61.4746H85.1575V85.2582H79.01V82.638C77.4984 84.8551 75.1805 85.9637 71.9556 85.9637C69.3353 85.9637 67.219 85.0567 65.5058 83.3434C63.7926 81.6302 62.9863 79.2116 62.9863 76.0874V61.4746H69.1338V75.382C69.1338 76.9944 69.5369 78.2038 70.4439 79.01C71.3509 79.8162 72.4595 80.3201 73.8704 80.3201C75.4828 80.3201 76.6921 79.8162 77.6999 78.8084C78.6069 77.8007 79.1108 76.3898 79.1108 74.3742V61.4746H79.01Z" fill="#091C32"/>
<path d="M96.8477 65.6063C97.4523 64.0946 98.3593 62.9861 99.6694 62.1799C100.98 61.3736 102.491 61.0713 104.104 61.0713V67.9242C102.189 67.7226 100.576 68.1258 99.0648 69.0328C97.5531 70.0405 96.8477 71.653 96.8477 73.9709V85.3588H90.7002V61.4744H96.8477V65.6063Z" fill="#091C32"/>
<path d="M111.964 75.8862C112.771 78.9096 114.988 80.3205 118.717 80.3205C121.035 80.3205 122.849 79.5143 124.058 77.9018L128.996 80.7236C126.678 84.15 123.151 85.8633 118.616 85.8633C114.686 85.8633 111.561 84.6539 109.143 82.336C106.724 79.9174 105.615 76.9948 105.615 73.3668C105.615 69.7388 106.825 66.8162 109.143 64.3975C111.461 61.9789 114.484 60.7695 118.213 60.7695C121.74 60.7695 124.562 61.9789 126.88 64.3975C129.198 66.8162 130.306 69.8396 130.306 73.3668C130.306 74.173 130.205 74.9792 130.105 75.8862H111.964ZM111.864 71.1497H124.058C123.756 69.5372 122.949 68.3279 121.841 67.5217C120.732 66.7154 119.523 66.3123 118.112 66.3123C116.5 66.3123 115.089 66.7154 113.98 67.6224C112.972 68.4287 112.267 69.638 111.864 71.1497Z" fill="#091C32"/>
<path d="M147.741 60.8701C150.361 60.8701 152.477 61.7771 154.191 63.4903C155.904 65.2036 156.71 67.6222 156.71 70.7464V85.3592H150.562V71.4518C150.562 69.8394 150.159 68.63 149.252 67.8238C148.345 67.0176 147.237 66.5137 145.826 66.5137C144.213 66.5137 143.004 67.0176 141.996 68.0254C141.089 69.0331 140.585 70.444 140.585 72.4596V85.3592H134.438V61.4748H140.585V64.095C142.097 61.9787 144.516 60.8701 147.741 60.8701Z" fill="#091C32"/>
<path d="M180.09 61.475H186.238V85.2586H180.09V82.4368C178.276 84.7547 175.656 85.9641 172.33 85.9641C169.106 85.9641 166.385 84.7547 164.167 82.336C161.85 79.9174 160.741 76.894 160.741 73.3668C160.741 69.8396 161.85 66.8162 164.167 64.3975C166.485 61.9789 169.206 60.7695 172.33 60.7695C175.656 60.7695 178.276 61.8781 180.09 64.2968V61.475ZM168.702 78.2041C169.912 79.4135 171.524 80.1189 173.439 80.1189C175.354 80.1189 176.966 79.5143 178.176 78.2041C179.385 76.9948 180.09 75.3824 180.09 73.3668C180.09 71.3512 179.486 69.7388 178.176 68.5294C176.966 67.3201 175.354 66.6147 173.439 66.6147C171.524 66.6147 169.912 67.2193 168.702 68.5294C167.493 69.7388 166.888 71.3512 166.888 73.3668C166.888 75.3824 167.493 76.9948 168.702 78.2041Z" fill="#091C32"/>
<path d="M205.386 67.4205H200.045V77.2968C200.045 78.103 200.246 78.7076 200.649 79.1108C201.052 79.5139 201.657 79.7154 202.463 79.7154C203.27 79.7154 204.277 79.7154 205.386 79.7154V85.2582C201.153 85.7621 198.231 85.359 196.417 84.0489C194.703 82.7388 193.796 80.5217 193.796 77.196V67.3197H189.665V61.4746H193.796V56.6372L199.944 54.8232V61.4746H205.285V67.4205H205.386Z" fill="#091C32"/>
<path d="M212.742 58.6529C211.735 58.6529 210.828 58.2498 210.122 57.5443C209.417 56.8389 209.014 55.9319 209.014 54.9241C209.014 53.9163 209.417 53.0093 210.122 52.3039C210.828 51.4976 211.735 51.1953 212.742 51.1953C213.75 51.1953 214.657 51.5984 215.463 52.3039C216.169 53.1101 216.572 53.9163 216.572 54.9241C216.572 55.9319 216.169 56.8389 215.463 57.5443C214.758 58.2498 213.851 58.6529 212.742 58.6529ZM209.719 61.4747H215.867V85.2583H209.719V61.4747Z" fill="#091C32"/>
<path d="M241.767 82.336C239.348 84.7547 236.325 85.9641 232.797 85.9641C229.27 85.9641 226.247 84.7547 223.828 82.336C221.41 79.9174 220.2 76.894 220.2 73.3668C220.2 69.8396 221.41 66.8162 223.828 64.3975C226.247 61.9789 229.27 60.7695 232.797 60.7695C236.325 60.7695 239.348 61.9789 241.767 64.3975C244.185 66.8162 245.395 69.8396 245.395 73.3668C245.495 76.894 244.185 79.9174 241.767 82.336ZM228.262 78.1034C229.472 79.3127 230.983 79.9174 232.898 79.9174C234.712 79.9174 236.325 79.3127 237.534 78.1034C238.743 76.894 239.348 75.2816 239.348 73.3668C239.348 71.452 238.743 69.9403 237.534 68.6302C236.325 67.3201 234.712 66.8162 232.898 66.8162C231.084 66.8162 229.573 67.4209 228.262 68.6302C227.053 69.8396 226.448 71.452 226.448 73.3668C226.348 75.2816 227.053 76.894 228.262 78.1034Z" fill="#091C32"/>
<path d="M263.031 60.8701C265.651 60.8701 267.767 61.7771 269.481 63.4903C271.194 65.2036 272 67.6222 272 70.7464V85.3592H265.853V71.4518C265.853 69.8394 265.449 68.63 264.542 67.8238C263.635 67.0176 262.527 66.5137 261.116 66.5137C259.504 66.5137 258.294 67.0176 257.286 68.0254C256.379 69.0331 255.875 70.444 255.875 72.4596V85.3592H249.728V61.4748H255.875V64.095C257.387 61.9787 259.806 60.8701 263.031 60.8701Z" fill="#091C32"/>
<path d="M264.038 91.1035C254.868 115.593 231.286 133.027 203.572 133.027C175.858 133.027 152.276 115.593 143.105 91.1035H138.872C148.244 117.81 173.641 137.058 203.572 137.058C233.503 137.058 258.899 117.81 268.271 91.1035H264.038Z" fill="#091C32"/>
<path d="M140.585 54.8233C146.934 25.7992 172.734 4.03112 203.672 4.03112C234.51 4.03112 260.41 25.7992 266.659 54.8233H270.791C264.341 23.5821 236.728 0 203.672 0C170.617 0 142.903 23.5821 136.554 54.8233H140.585Z" fill="#091C32"/>
</svg>
