<svg width="28" height="28" viewBox="0 0 28 28" fill="none" xmlns="http://www.w3.org/2000/svg">
<path fill-rule="evenodd" clip-rule="evenodd" d="M6.65837 0.0145673C4.87673 0.235054 3.42119 0.949267 2.16513 2.21927C1.04823 3.3486 0.424145 4.51031 0.101118 6.0616C-0.0340432 6.71036 -0.0336049 8.15768 0.10183 8.79372C0.503971 10.6817 1.4696 12.2208 2.93999 13.3172C3.88469 14.0217 4.9839 14.5044 6.08902 14.7002L6.60358 14.7913V17.2739V19.7564H5.28649C4.07459 19.7564 3.95214 19.7653 3.7532 19.8667C3.51011 19.9907 3.31633 20.3063 3.31633 20.5781C3.31633 20.8499 3.51011 21.1655 3.7532 21.2895C3.95214 21.391 4.07459 21.3998 5.28649 21.3998H6.60358V22.7167C6.60358 23.9284 6.6124 24.0509 6.71387 24.2498C6.83791 24.4928 7.15354 24.6866 7.42539 24.6866C7.69725 24.6866 8.01288 24.4928 8.13692 24.2498C8.23839 24.0509 8.24721 23.9284 8.24721 22.7167V21.3998H9.5643C10.7762 21.3998 10.8987 21.391 11.0976 21.2895C11.3407 21.1655 11.5345 20.8499 11.5345 20.5781C11.5345 20.3063 11.3407 19.9907 11.0976 19.8667C10.8987 19.7653 10.7762 19.7564 9.5643 19.7564H8.24721V17.2715V14.7865L8.66529 14.7191C9.2485 14.625 10.1608 14.3257 10.7126 14.0472C11.4618 13.6693 11.9596 13.3062 12.6105 12.6631C13.7204 11.5664 14.3544 10.389 14.6942 8.79372C14.8286 8.16266 14.8283 6.71934 14.6936 6.04303C14.094 3.03181 11.8074 0.722262 8.82248 0.113115C8.43814 0.0346714 7.01838 -0.0299683 6.65837 0.0145673ZM8.22726 1.68375C10.488 1.99818 12.39 3.71228 12.9952 5.98069C13.1251 6.46785 13.1409 6.62539 13.1408 7.43109C13.1406 8.41711 13.086 8.71626 12.7463 9.59657C12.2322 10.9285 10.9234 12.2372 9.5912 12.7511C8.71077 13.0909 8.41157 13.1454 7.42539 13.1456C6.61958 13.1458 6.46201 13.1299 5.97478 13C3.28406 12.2824 1.48061 9.83091 1.63616 7.10241C1.71883 5.65147 2.28917 4.39105 3.33704 3.34334C4.6589 2.02168 6.4024 1.43001 8.22726 1.68375ZM20.2183 3.41258C19.9785 3.53737 16.6961 6.81937 16.5712 7.05914C16.4358 7.31912 16.4371 7.54448 16.5756 7.81597C16.7683 8.19351 17.2542 8.35406 17.6323 8.16518C17.7287 8.11703 18.2453 7.64275 18.7801 7.11128L19.7526 6.14492V9.68027V13.2156L19.2288 13.3134C17.7193 13.5953 16.4455 14.277 15.3416 15.3938C14.451 16.295 13.9492 17.1027 13.5673 18.25C12.793 20.576 13.2118 23.1077 14.6969 25.079C15.7915 26.5319 17.3572 27.5116 19.2047 27.8996C19.7863 28.0217 21.2282 28.0353 21.8345 27.9245C22.4391 27.8139 23.3313 27.5166 23.8617 27.249C24.6183 26.8673 25.1103 26.5066 25.787 25.8376C26.9265 24.711 27.5551 23.5506 27.898 21.9408C28.034 21.3021 28.034 19.8541 27.898 19.2155C27.673 18.1592 27.2697 17.2036 26.6973 16.371C26.3506 15.8665 25.5121 15.0071 24.9848 14.6157C24.1725 14.0127 22.8393 13.4554 21.8126 13.2898L21.3962 13.2227V9.68378V6.14492L22.3687 7.11128C22.9035 7.64275 23.4201 8.11703 23.5165 8.16518C23.8946 8.35406 24.3806 8.19351 24.5732 7.81597C24.7117 7.54448 24.713 7.31912 24.5776 7.05914C24.4468 6.80803 21.1616 3.53091 20.9196 3.41012C20.7 3.30056 20.4317 3.30149 20.2183 3.41258ZM22.025 15.0145C24.6929 15.6999 26.5202 18.1813 26.3641 20.9067C26.2812 22.3534 25.7073 23.6214 24.6628 24.6659C23.8795 25.4491 23.0588 25.9234 22.0199 26.1933C18.9542 26.9899 15.8317 25.136 15.005 22.0285C14.8778 21.5502 14.8592 21.3725 14.8558 20.6055C14.8515 19.6255 14.943 19.1411 15.2854 18.3292C16.0373 16.5468 17.7925 15.1844 19.7252 14.8832C20.3026 14.7932 21.4096 14.8564 22.025 15.0145Z" fill="#52596E"/>
</svg>
