<svg width="26" height="25" viewBox="0 0 26 25" fill="none" xmlns="http://www.w3.org/2000/svg">
<path d="M2.375 19.21V22.2412H23.625V19.21H2.375ZM2.375 24.1162C1.85417 24.1162 1.41146 23.9339 1.04688 23.5693C0.682292 23.2048 0.5 22.762 0.5 22.2412V7.24121C0.5 6.72038 0.682292 6.27767 1.04688 5.91309C1.41146 5.5485 1.85417 5.36621 2.375 5.36621H6.28125C6.17708 5.17871 6.09375 4.94434 6.03125 4.66309C5.96875 4.38184 5.9375 4.12663 5.9375 3.89746C5.9375 2.91829 6.28125 2.08496 6.96875 1.39746C7.65625 0.709961 8.47917 0.366211 9.4375 0.366211C10.0833 0.366211 10.6771 0.527669 11.2188 0.850586C11.7604 1.1735 12.1875 1.58496 12.5 2.08496L13.0312 2.89746L13.5312 2.08496C13.8646 1.56413 14.2917 1.14746 14.8125 0.834961C15.3333 0.522461 15.8958 0.366211 16.5 0.366211C17.5 0.366211 18.3438 0.704753 19.0312 1.38184C19.7188 2.05892 20.0625 2.89746 20.0625 3.89746C20.0625 4.12663 20.0365 4.35579 19.9844 4.58496C19.9323 4.81413 19.8542 5.07454 19.75 5.36621H23.625C24.1458 5.36621 24.5885 5.5485 24.9531 5.91309C25.3177 6.27767 25.5 6.72038 25.5 7.24121V22.2412C25.5 22.762 25.3177 23.2048 24.9531 23.5693C24.5885 23.9339 24.1458 24.1162 23.625 24.1162H2.375ZM2.375 15.8662H23.625V7.24121H15.8438L18.4375 10.835C18.5833 11.0433 18.6302 11.2673 18.5781 11.5068C18.526 11.7464 18.4062 11.96 18.2188 12.1475C18.0104 12.3141 17.776 12.3818 17.5156 12.3506C17.2552 12.3193 17.0521 12.1891 16.9062 11.96L13 6.52246L9.0625 11.96C8.89583 12.1891 8.68229 12.3193 8.42187 12.3506C8.16146 12.3818 7.94792 12.3141 7.78125 12.1475C7.57292 11.9808 7.45312 11.7777 7.42188 11.5381C7.39062 11.2985 7.44792 11.0641 7.59375 10.835L10.1562 7.24121H2.375V15.8662ZM9.46875 5.55371C9.92708 5.55371 10.3177 5.39225 10.6406 5.06934C10.9635 4.74642 11.125 4.35579 11.125 3.89746C11.125 3.43913 10.9635 3.0485 10.6406 2.72559C10.3177 2.40267 9.92708 2.24121 9.46875 2.24121C9.01042 2.24121 8.61979 2.40267 8.29688 2.72559C7.97396 3.0485 7.8125 3.43913 7.8125 3.89746C7.8125 4.35579 7.97396 4.74642 8.29688 5.06934C8.61979 5.39225 9.01042 5.55371 9.46875 5.55371ZM16.5 5.55371C16.9792 5.55371 17.3802 5.39225 17.7031 5.06934C18.026 4.74642 18.1875 4.35579 18.1875 3.89746C18.1875 3.43913 18.026 3.0485 17.7031 2.72559C17.3802 2.40267 16.9792 2.24121 16.5 2.24121C16.0625 2.24121 15.6823 2.40267 15.3594 2.72559C15.0365 3.0485 14.875 3.43913 14.875 3.89746C14.875 4.35579 15.0365 4.74642 15.3594 5.06934C15.6823 5.39225 16.0625 5.55371 16.5 5.55371Z" fill="#240DFF"/>
</svg>
