<svg width="26" height="26" viewBox="0 0 26 26" fill="none" xmlns="http://www.w3.org/2000/svg">
<path d="M13 25.3662C11.25 25.3662 9.61458 25.0381 8.09375 24.3818C6.57292 23.7256 5.25 22.835 4.125 21.71C3 20.585 2.11458 19.2568 1.46875 17.7256C0.822917 16.1943 0.5 14.5537 0.5 12.8037C0.5 11.0537 0.822917 9.4235 1.46875 7.91309C2.11458 6.40267 3 5.08496 4.125 3.95996C5.25 2.83496 6.57292 1.95475 8.09375 1.31934C9.61458 0.683919 11.25 0.366211 13 0.366211C14.75 0.366211 16.3854 0.683919 17.9062 1.31934C19.4271 1.95475 20.75 2.83496 21.875 3.95996C23 5.08496 23.8854 6.40267 24.5312 7.91309C25.1771 9.4235 25.5 11.0537 25.5 12.8037C25.5 14.5537 25.1771 16.1943 24.5312 17.7256C23.8854 19.2568 23 20.585 21.875 21.71C20.75 22.835 19.4271 23.7256 17.9062 24.3818C16.3854 25.0381 14.75 25.3662 13 25.3662ZM17.9375 8.17871H22.625C21.9375 6.74121 20.9948 5.54329 19.7969 4.58496C18.599 3.62663 17.2188 2.94954 15.6562 2.55371C16.1771 3.32454 16.6198 4.15788 16.9844 5.05371C17.349 5.94954 17.6667 6.99121 17.9375 8.17871ZM10 8.17871H16.0625C15.8333 7.07454 15.4479 6.00684 14.9062 4.97559C14.3646 3.94434 13.7292 3.03288 13 2.24121C12.3333 2.80371 11.7708 3.54329 11.3125 4.45996C10.8542 5.37663 10.4167 6.61621 10 8.17871ZM2.75 15.6475H7.71875C7.65625 15.085 7.61979 14.5798 7.60938 14.1318C7.59896 13.6839 7.59375 13.2412 7.59375 12.8037C7.59375 12.2829 7.60417 11.8193 7.625 11.4131C7.64583 11.0068 7.6875 10.5537 7.75 10.0537H2.75C2.60417 10.5537 2.50521 11.0016 2.45312 11.3975C2.40104 11.7933 2.375 12.262 2.375 12.8037C2.375 13.3454 2.40104 13.8298 2.45312 14.2568C2.50521 14.6839 2.60417 15.1475 2.75 15.6475ZM10.3438 23.1787C9.82292 22.387 9.375 21.5329 9 20.6162C8.625 19.6995 8.3125 18.6683 8.0625 17.5225H3.375C4.16667 19.0016 5.08333 20.1631 6.125 21.0068C7.16667 21.8506 8.57292 22.5745 10.3438 23.1787ZM3.375 8.17871H8.09375C8.32292 7.05371 8.61458 6.0485 8.96875 5.16309C9.32292 4.27767 9.77083 3.41829 10.3125 2.58496C8.75 2.98079 7.38542 3.64746 6.21875 4.58496C5.05208 5.52246 4.10417 6.72038 3.375 8.17871ZM13 23.5537C13.7292 22.8037 14.3385 21.9443 14.8281 20.9756C15.3177 20.0068 15.7188 18.8558 16.0312 17.5225H10C10.2917 18.7725 10.6823 19.8975 11.1719 20.8975C11.6615 21.8975 12.2708 22.7829 13 23.5537ZM9.65625 15.6475H16.375C16.4583 15.0016 16.5104 14.4756 16.5312 14.0693C16.5521 13.6631 16.5625 13.2412 16.5625 12.8037C16.5625 12.387 16.5521 11.986 16.5312 11.6006C16.5104 11.2152 16.4583 10.6995 16.375 10.0537H9.65625C9.57292 10.6995 9.52083 11.2152 9.5 11.6006C9.47917 11.986 9.46875 12.387 9.46875 12.8037C9.46875 13.2412 9.47917 13.6631 9.5 14.0693C9.52083 14.4756 9.57292 15.0016 9.65625 15.6475ZM15.6875 23.1475C17.1875 22.6683 18.5365 21.9495 19.7344 20.9912C20.9323 20.0329 21.8958 18.8766 22.625 17.5225H17.9688C17.6979 18.6475 17.3802 19.6683 17.0156 20.585C16.651 21.5016 16.2083 22.3558 15.6875 23.1475ZM18.25 15.6475H23.25C23.3958 15.1475 23.4948 14.6839 23.5469 14.2568C23.599 13.8298 23.625 13.3454 23.625 12.8037C23.625 12.262 23.599 11.7933 23.5469 11.3975C23.4948 11.0016 23.3958 10.5537 23.25 10.0537H18.2812C18.3438 10.7829 18.3854 11.3402 18.4062 11.7256C18.4271 12.111 18.4375 12.4704 18.4375 12.8037C18.4375 13.262 18.4219 13.6943 18.3906 14.1006C18.3594 14.5068 18.3125 15.0225 18.25 15.6475Z" fill="#240DFF"/>
</svg>
