<svg width="56" height="56" viewBox="0 0 56 56" fill="none" xmlns="http://www.w3.org/2000/svg">
<path d="M52.5024 28.544C52.5024 26.5296 52.3356 25.0596 51.9746 23.5352H28.5024V32.6273H42.2801C42.0024 34.8868 40.5024 38.2896 37.169 40.5761L37.1223 40.8805L44.5438 46.5149L45.058 46.5651C49.7801 42.2912 52.5024 36.0028 52.5024 28.544Z" fill="#4285F4"/>
<path d="M28.501 52.4999C35.2509 52.4999 40.9175 50.3219 45.0565 46.5654L37.1676 40.5763C35.0565 42.0191 32.2232 43.0263 28.501 43.0263C21.89 43.0263 16.2789 38.7525 14.2788 32.8452L13.9856 32.8696L6.26864 38.7225L6.16772 38.9974C10.2788 47.0008 18.7232 52.4999 28.501 52.4999Z" fill="#34A853"/>
<path d="M14.2801 32.8454C13.7523 31.321 13.4469 29.6876 13.4469 27.9999C13.4469 26.312 13.7523 24.6787 14.2523 23.1543L14.2384 22.8296L6.42469 16.8828L6.16904 17.002C4.47467 20.3231 3.50244 24.0526 3.50244 27.9999C3.50244 31.9471 4.47467 35.6764 6.16904 38.9975L14.2801 32.8454Z" fill="#FBBC05"/>
<path d="M28.5012 12.9733C33.1955 12.9733 36.3621 14.9605 38.1678 16.6211L45.2233 9.87C40.8901 5.92279 35.2511 3.5 28.5012 3.5C18.7233 3.5 10.2788 8.99885 6.16772 17.0021L14.251 23.1544C16.279 17.2472 21.8901 12.9733 28.5012 12.9733Z" fill="#EB4335"/>
</svg>
