<svg width="28" height="28" viewBox="0 0 28 28" fill="none" xmlns="http://www.w3.org/2000/svg">
<path d="M23.1 25.5792L20.9416 23.4501C19.9694 24.1501 18.9 24.6945 17.7333 25.0834C16.5666 25.4723 15.3222 25.6667 14 25.6667C12.3472 25.6667 10.8111 25.3702 9.39163 24.7771C7.97218 24.1841 6.73746 23.3626 5.68746 22.3126C4.63746 21.2626 3.81593 20.0278 3.22288 18.6084C2.62982 17.189 2.3333 15.6528 2.3333 14.0001C2.3333 12.6778 2.52774 11.4334 2.91663 10.2667C3.30552 9.10006 3.84996 8.03062 4.54996 7.0584L2.39163 4.90006C2.21663 4.72506 2.13399 4.5209 2.14371 4.28756C2.15343 4.05423 2.2458 3.85006 2.4208 3.67506C2.5958 3.50006 2.80482 3.41256 3.04788 3.41256C3.29093 3.41256 3.49996 3.50006 3.67496 3.67506L24.3541 24.3542C24.5291 24.5292 24.6166 24.7334 24.6166 24.9667C24.6166 25.2001 24.5291 25.4042 24.3541 25.5792C24.1791 25.7542 23.9701 25.8417 23.727 25.8417C23.484 25.8417 23.275 25.7542 23.1 25.5792ZM14 23.9167C15.0694 23.9167 16.0805 23.766 17.0333 23.4646C17.9861 23.1633 18.8708 22.7403 19.6875 22.1959L5.80413 8.31256C5.25968 9.12923 4.83677 10.014 4.53538 10.9667C4.23399 11.9195 4.0833 12.9306 4.0833 14.0001C4.0833 16.8195 5.03121 19.1771 6.92704 21.073C8.82288 22.9688 11.1805 23.9167 14 23.9167ZM23.45 20.9417L22.1958 19.6876C22.7402 18.8709 23.1632 17.9862 23.4645 17.0334C23.7659 16.0806 23.9166 15.0695 23.9166 14.0001C23.9166 11.1806 22.9687 8.82298 21.0729 6.92715C19.177 5.03131 16.8194 4.0834 14 4.0834C12.9305 4.0834 11.9194 4.23409 10.9666 4.53548C10.0138 4.83687 9.12913 5.25979 8.31246 5.80423L7.05829 4.55006C8.03052 3.85006 9.09996 3.30562 10.2666 2.91673C11.4333 2.52784 12.6777 2.3334 14 2.3334C15.6333 2.3334 17.1597 2.63479 18.5791 3.23756C19.9986 3.84034 21.2333 4.66673 22.2833 5.71673C23.3333 6.76673 24.1597 8.00145 24.7625 9.4209C25.3652 10.8403 25.6666 12.3667 25.6666 14.0001C25.6666 15.3223 25.4722 16.5667 25.0833 17.7334C24.6944 18.9001 24.15 19.9695 23.45 20.9417Z" fill="#52596E"/>
</svg>
