<svg width="56" height="56" viewBox="0 0 56 56" fill="none" xmlns="http://www.w3.org/2000/svg">
<rect x="3.5" y="3.5" width="49" height="49" rx="24.5" fill="#1275B1"/>
<path d="M22.0825 16.9613C22.0825 18.5967 20.6649 19.9225 18.9162 19.9225C17.1676 19.9225 15.75 18.5967 15.75 16.9613C15.75 15.3258 17.1676 14 18.9162 14C20.6649 14 22.0825 15.3258 22.0825 16.9613Z" fill="white"/>
<path d="M16.183 22.0992H21.5954V38.5H16.183V22.0992Z" fill="white"/>
<path d="M30.3093 22.0992H24.8969V38.5H30.3093C30.3093 38.5 30.3093 33.3368 30.3093 30.1085C30.3093 28.1708 30.9709 26.2247 33.6108 26.2247C36.5943 26.2247 36.5763 28.7604 36.5624 30.7249C36.5442 33.2928 36.5876 35.9132 36.5876 38.5H42V29.844C41.9542 24.3169 40.5139 21.7701 35.7758 21.7701C32.9619 21.7701 31.2177 23.0476 30.3093 24.2034V22.0992Z" fill="white"/>
</svg>
