<svg width="14" height="16" viewBox="0 0 14 16" fill="none" xmlns="http://www.w3.org/2000/svg">
    <path fill-rule="evenodd" clip-rule="evenodd"
        d="M0.563232 6.72396C0.563232 3.35577 3.37787 0.633392 6.78245 0.633392C10.1966 0.633392 13.0113 3.35577 13.0113 6.72396C13.0113 8.42124 12.394 9.99697 11.378 11.3325C10.2572 12.8057 8.8757 14.0893 7.32071 15.0969C6.96482 15.3297 6.64364 15.3473 6.25304 15.0969C4.6892 14.0893 3.30772 12.8057 2.19649 11.3325C1.17976 9.99697 0.563232 8.42124 0.563232 6.72396ZM4.73273 6.91395C4.73273 8.0423 5.65347 8.92974 6.78242 8.92974C7.91211 8.92974 8.84171 8.0423 8.84171 6.91395C8.84171 5.79439 7.91211 4.86375 6.78242 4.86375C5.65347 4.86375 4.73273 5.79439 4.73273 6.91395Z"
        fill="#666262" />
</svg>
