<svg width="28" height="28" viewBox="0 0 28 28" fill="none" xmlns="http://www.w3.org/2000/svg">
<path d="M10.792 14.8747V9.47884L14.0003 7.34968L17.2087 9.47884V14.8747H15.4587V11.3747H12.542V14.8747H10.792ZM14.0003 23.3622C16.5864 21.0094 18.4969 18.8754 19.7316 16.9601C20.9663 15.0448 21.5837 13.358 21.5837 11.8997C21.5837 9.60523 20.8496 7.72884 19.3816 6.27051C17.9135 4.81217 16.1198 4.08301 14.0003 4.08301C11.8809 4.08301 10.0871 4.81217 8.61908 6.27051C7.15102 7.72884 6.41699 9.60523 6.41699 11.8997C6.41699 13.358 7.04894 15.0448 8.31283 16.9601C9.57671 18.8754 11.4725 21.0094 14.0003 23.3622ZM14.0003 25.6663C10.8698 23.0025 8.53158 20.5281 6.98574 18.2434C5.43991 15.9587 4.66699 13.8441 4.66699 11.8997C4.66699 8.98301 5.60519 6.6594 7.48158 4.92884C9.35796 3.19829 11.5309 2.33301 14.0003 2.33301C16.4698 2.33301 18.6427 3.19829 20.5191 4.92884C22.3955 6.6594 23.3337 8.98301 23.3337 11.8997C23.3337 13.8441 22.5607 15.9587 21.0149 18.2434C19.4691 20.5281 17.1309 23.0025 14.0003 25.6663Z" fill="#52596E"/>
</svg>
