<svg width="28" height="28" viewBox="0 0 28 28" fill="none" xmlns="http://www.w3.org/2000/svg">
<path d="M11.8125 20.0083H22.3417V12.4833H11.8125V20.0083ZM4.08337 23.3333C3.61671 23.3333 3.20837 23.1583 2.85837 22.8083C2.50837 22.4583 2.33337 22.05 2.33337 21.5833V6.41667C2.33337 5.95001 2.50837 5.54167 2.85837 5.19167C3.20837 4.84167 3.61671 4.66667 4.08337 4.66667H23.9167C24.3834 4.66667 24.7917 4.84167 25.1417 5.19167C25.4917 5.54167 25.6667 5.95001 25.6667 6.41667V21.5833C25.6667 22.05 25.4917 22.4583 25.1417 22.8083C24.7917 23.1583 24.3834 23.3333 23.9167 23.3333H4.08337ZM4.08337 21.5833V6.41667V21.5833ZM4.08337 21.5833H23.9167V6.41667H4.08337V21.5833Z" fill="#52596E"/>
</svg>
