<svg width="28" height="28" viewBox="0 0 28 28" fill="none" xmlns="http://www.w3.org/2000/svg">
<path d="M5.25 24.5C4.76389 24.5 4.35069 24.3299 4.01042 23.9896C3.67014 23.6493 3.5 23.2361 3.5 22.75V10.0625C3.5 9.57639 3.67014 9.16319 4.01042 8.82292C4.35069 8.48264 4.76389 8.3125 5.25 8.3125H8.3125V5.25C8.3125 4.76389 8.48264 4.35069 8.82292 4.01042C9.16319 3.67014 9.57639 3.5 10.0625 3.5H17.9375C18.4236 3.5 18.8368 3.67014 19.1771 4.01042C19.5174 4.35069 19.6875 4.76389 19.6875 5.25V13.125H22.75C23.2361 13.125 23.6493 13.2951 23.9896 13.6354C24.3299 13.9757 24.5 14.3889 24.5 14.875V22.75C24.5 23.2361 24.3299 23.6493 23.9896 23.9896C23.6493 24.3299 23.2361 24.5 22.75 24.5H15.5458V19.6875H12.4542V24.5H5.25ZM5.25 22.75H8.3125V19.6875H5.25V22.75ZM5.25 17.9375H8.3125V14.875H5.25V17.9375ZM5.25 13.125H8.3125V10.0625H5.25V13.125ZM10.0625 17.9375H13.125V14.875H10.0625V17.9375ZM10.0625 13.125H13.125V10.0625H10.0625V13.125ZM10.0625 8.3125H13.125V5.25H10.0625V8.3125ZM14.875 17.9375H17.9375V14.875H14.875V17.9375ZM14.875 13.125H17.9375V10.0625H14.875V13.125ZM14.875 8.3125H17.9375V5.25H14.875V8.3125ZM19.6875 22.75H22.75V19.6875H19.6875V22.75ZM19.6875 17.9375H22.75V14.875H19.6875V17.9375Z" fill="#52596E"/>
</svg>
