<svg width="26" height="26" viewBox="0 0 26 26" fill="none" xmlns="http://www.w3.org/2000/svg">
<rect width="26" height="26" rx="5" transform="matrix(4.37114e-08 1 1 -4.37114e-08 0 0)" fill="#F1F1F1" fill-opacity="0.5"/>
<path fill-rule="evenodd" clip-rule="evenodd" d="M14.958 18.8215C14.844 19.3112 14.499 19.7162 14.0221 19.9199C13.85 19.9934 13.8071 20 13.4998 20C13.1926 20 13.1497 19.9934 12.9776 19.9199C12.4944 19.7135 12.1538 19.3097 12.0404 18.8087C11.8001 17.7476 12.6784 16.755 13.7179 16.9128C14.5792 17.0435 15.1628 17.9419 14.958 18.8215ZM14.958 13.3273C14.8438 13.818 14.4698 14.2545 14.0126 14.4308C13.7726 14.5233 13.3948 14.5455 13.1517 14.4813C12.4737 14.3024 12.0021 13.682 12.0005 12.967C11.9999 12.7192 12.0439 12.5301 12.1613 12.2754C12.3315 11.9063 12.6525 11.6141 13.0395 11.4757C13.2935 11.3848 13.7062 11.3848 13.9602 11.4757C14.3472 11.6141 14.6682 11.9063 14.8384 12.2754C15.0016 12.6293 15.0406 12.9726 14.958 13.3273ZM14.9572 7.66959C14.8983 7.92317 14.7466 8.19483 14.5494 8.40027C13.9676 9.00608 13.0321 9.00608 12.4503 8.40027C11.6704 7.58805 11.9401 6.27332 12.9776 5.8301C13.1497 5.75658 13.1926 5.75 13.4998 5.75C13.8071 5.75 13.85 5.75658 14.0221 5.8301C14.746 6.13936 15.135 6.90459 14.9572 7.66959Z" fill="#52596E"/>
</svg>
