<svg width="28" height="28" viewBox="0 0 28 28" fill="none" xmlns="http://www.w3.org/2000/svg">
<path d="M14 23.3333C13.6111 23.3333 13.2805 23.1972 13.0083 22.925C12.7361 22.6528 12.6 22.3222 12.6 21.9333C12.6 21.5444 12.7361 21.2139 13.0083 20.9417C13.2805 20.6694 13.6111 20.5333 14 20.5333C14.3889 20.5333 14.7194 20.6694 14.9916 20.9417C15.2639 21.2139 15.4 21.5444 15.4 21.9333C15.4 22.3222 15.2639 22.6528 14.9916 22.925C14.7194 23.1972 14.3889 23.3333 14 23.3333ZM14 15.4C13.6111 15.4 13.2805 15.2639 13.0083 14.9917C12.7361 14.7194 12.6 14.3889 12.6 14C12.6 13.6111 12.7361 13.2806 13.0083 13.0083C13.2805 12.7361 13.6111 12.6 14 12.6C14.3889 12.6 14.7194 12.7361 14.9916 13.0083C15.2639 13.2806 15.4 13.6111 15.4 14C15.4 14.3889 15.2639 14.7194 14.9916 14.9917C14.7194 15.2639 14.3889 15.4 14 15.4ZM14 7.46667C13.6111 7.46667 13.2805 7.33056 13.0083 7.05834C12.7361 6.78612 12.6 6.45556 12.6 6.06667C12.6 5.67778 12.7361 5.34723 13.0083 5.075C13.2805 4.80278 13.6111 4.66667 14 4.66667C14.3889 4.66667 14.7194 4.80278 14.9916 5.075C15.2639 5.34723 15.4 5.67778 15.4 6.06667C15.4 6.45556 15.2639 6.78612 14.9916 7.05834C14.7194 7.33056 14.3889 7.46667 14 7.46667Z" fill="#52596E"/>
</svg>
