<svg width="28" height="28" viewBox="0 0 28 28" fill="none" xmlns="http://www.w3.org/2000/svg">
<path d="M13.9993 1.16699C15.5355 1.16699 16.8431 1.70658 17.9223 2.78574C19.0014 3.86491 19.541 5.17255 19.541 6.70866V9.50866H21.5827C22.0688 9.50866 22.482 9.6788 22.8223 10.0191C23.1625 10.3594 23.3327 10.7725 23.3327 11.2587V23.917C23.3327 24.4031 23.1625 24.8163 22.8223 25.1566C22.482 25.4969 22.0688 25.667 21.5827 25.667H6.41602C5.9299 25.667 5.51671 25.4969 5.17643 25.1566C4.83615 24.8163 4.66602 24.4031 4.66602 23.917V11.2587C4.66602 10.7725 4.83615 10.3594 5.17643 10.0191C5.51671 9.6788 5.9299 9.50866 6.41602 9.50866H8.45768V6.70866C8.45768 5.17255 8.99727 3.86491 10.0764 2.78574C11.1556 1.70658 12.4632 1.16699 13.9993 1.16699ZM13.9993 2.91699C12.9493 2.91699 12.0549 3.28644 11.316 4.02533C10.5771 4.76421 10.2077 5.65866 10.2077 6.70866V9.50866H17.791V6.70866C17.791 5.65866 17.4216 4.76421 16.6827 4.02533C15.9438 3.28644 15.0493 2.91699 13.9993 2.91699ZM6.41602 23.917H21.5827V11.2587H6.41602V23.917ZM13.9993 15.342C13.3771 15.342 12.8473 15.5802 12.4098 16.0566C11.9723 16.533 11.7535 17.0628 11.7535 17.6462C11.7535 18.2489 11.9723 18.7642 12.4098 19.192C12.8473 19.6198 13.3771 19.8337 13.9993 19.8337C14.6216 19.8337 15.1514 19.6198 15.5889 19.192C16.0264 18.7642 16.2452 18.2489 16.2452 17.6462C16.2452 17.0628 16.0264 16.533 15.5889 16.0566C15.1514 15.5802 14.6216 15.342 13.9993 15.342ZM6.41602 11.2587V23.917V11.2587Z" fill="#52596E"/>
</svg>
