<svg width="18" height="26" viewBox="0 0 18 26" fill="none" xmlns="http://www.w3.org/2000/svg">
<path d="M2.58301 25.8337C2.11634 25.8337 1.70801 25.6587 1.35801 25.3087C1.00801 24.9587 0.833008 24.5503 0.833008 24.0837V1.91699C0.833008 1.45033 1.00801 1.04199 1.35801 0.691992C1.70801 0.341992 2.11634 0.166992 2.58301 0.166992H15.4163C15.883 0.166992 16.2913 0.341992 16.6413 0.691992C16.9913 1.04199 17.1663 1.45033 17.1663 1.91699V24.0837C17.1663 24.5503 16.9913 24.9587 16.6413 25.3087C16.2913 25.6587 15.883 25.8337 15.4163 25.8337H2.58301ZM2.58301 21.4587H15.4163V4.54199H2.58301V21.4587ZM2.58301 23.2087V24.0837H15.4163V23.2087H2.58301ZM2.58301 2.79199H15.4163V1.91699H2.58301V2.79199ZM2.58301 1.91699V2.79199V1.91699ZM2.58301 24.0837V23.2087V24.0837Z" fill="#52596E"/>
</svg>
