<svg width="28" height="28" viewBox="0 0 28 28" fill="none" xmlns="http://www.w3.org/2000/svg">
<path d="M11.1708 10.6458V17.3542C11.1708 17.7042 11.3215 17.9667 11.6229 18.1417C11.9243 18.3167 12.2208 18.3069 12.5125 18.1125L17.7916 14.7292C18.0639 14.5542 18.2 14.3111 18.2 14C18.2 13.6889 18.0639 13.4458 17.7916 13.2708L12.5125 9.8875C12.2208 9.69306 11.9243 9.68334 11.6229 9.85834C11.3215 10.0333 11.1708 10.2958 11.1708 10.6458ZM14 25.6667C12.4055 25.6667 10.8986 25.3604 9.47915 24.7479C8.0597 24.1354 6.82012 23.2993 5.7604 22.2396C4.70067 21.1799 3.86456 19.9403 3.25206 18.5208C2.63956 17.1014 2.33331 15.5944 2.33331 14C2.33331 12.4056 2.63956 10.8986 3.25206 9.47917C3.86456 8.05973 4.70067 6.82014 5.7604 5.76042C6.82012 4.7007 8.0597 3.86459 9.47915 3.25209C10.8986 2.63959 12.4055 2.33334 14 2.33334C15.5944 2.33334 17.1014 2.63959 18.5208 3.25209C19.9403 3.86459 21.1798 4.7007 22.2396 5.76042C23.2993 6.82014 24.1354 8.05973 24.7479 9.47917C25.3604 10.8986 25.6666 12.4056 25.6666 14C25.6666 15.5944 25.3604 17.1014 24.7479 18.5208C24.1354 19.9403 23.2993 21.1799 22.2396 22.2396C21.1798 23.2993 19.9403 24.1354 18.5208 24.7479C17.1014 25.3604 15.5944 25.6667 14 25.6667ZM14 23.9167C16.7222 23.9167 19.0555 22.9444 21 21C22.9444 19.0556 23.9166 16.7222 23.9166 14C23.9166 11.2778 22.9444 8.94445 21 7C19.0555 5.05556 16.7222 4.08334 14 4.08334C11.2778 4.08334 8.94442 5.05556 6.99998 7C5.05554 8.94445 4.08331 11.2778 4.08331 14C4.08331 16.7222 5.05554 19.0556 6.99998 21C8.94442 22.9444 11.2778 23.9167 14 23.9167Z" fill="#52596E"/>
</svg>
