<svg width="28" height="28" viewBox="0 0 28 28" fill="none" xmlns="http://www.w3.org/2000/svg">
<path d="M1.98334 23.3333C1.73056 23.3333 1.52153 23.2507 1.35625 23.0854C1.19098 22.9201 1.10834 22.7111 1.10834 22.4583V20.5917C1.10834 19.9111 1.28334 19.2937 1.63334 18.7396C1.98334 18.1854 2.46945 17.7722 3.09167 17.5C4.51112 16.8778 5.78959 16.4306 6.92709 16.1583C8.06459 15.8861 9.23611 15.75 10.4417 15.75C11.6472 15.75 12.8139 15.8861 13.9417 16.1583C15.0694 16.4306 16.3431 16.8778 17.7625 17.5C18.3847 17.7722 18.8757 18.1854 19.2354 18.7396C19.5951 19.2937 19.775 19.9111 19.775 20.5917V22.4583C19.775 22.7111 19.6924 22.9201 19.5271 23.0854C19.3618 23.2507 19.1528 23.3333 18.9 23.3333H1.98334ZM20.8833 23.3333C21.0778 23.2944 21.2333 23.1924 21.35 23.0271C21.4667 22.8618 21.525 22.6528 21.525 22.4V20.5917C21.525 19.3667 21.2139 18.3604 20.5917 17.5729C19.9694 16.7854 19.1528 16.1486 18.1417 15.6625C19.4833 15.8181 20.7472 16.0465 21.9333 16.3479C23.1194 16.6493 24.0819 16.9944 24.8208 17.3833C25.4625 17.7528 25.9681 18.2097 26.3375 18.7542C26.7069 19.2986 26.8917 19.9111 26.8917 20.5917V22.4583C26.8917 22.7111 26.809 22.9201 26.6438 23.0854C26.4785 23.2507 26.2694 23.3333 26.0167 23.3333H20.8833ZM10.4417 13.9708C9.15834 13.9708 8.10834 13.5625 7.29167 12.7458C6.475 11.9292 6.06667 10.8792 6.06667 9.59583C6.06667 8.3125 6.475 7.2625 7.29167 6.44583C8.10834 5.62917 9.15834 5.22083 10.4417 5.22083C11.725 5.22083 12.775 5.62917 13.5917 6.44583C14.4083 7.2625 14.8167 8.3125 14.8167 9.59583C14.8167 10.8792 14.4083 11.9292 13.5917 12.7458C12.775 13.5625 11.725 13.9708 10.4417 13.9708ZM20.9417 9.59583C20.9417 10.8792 20.5333 11.9292 19.7167 12.7458C18.9 13.5625 17.85 13.9708 16.5667 13.9708C16.3528 13.9708 16.1146 13.9562 15.8521 13.9271C15.5896 13.8979 15.3514 13.8444 15.1375 13.7667C15.6042 13.2806 15.959 12.6826 16.2021 11.9729C16.4451 11.2632 16.5667 10.4708 16.5667 9.59583C16.5667 8.72083 16.4451 7.94792 16.2021 7.27708C15.959 6.60625 15.6042 5.98889 15.1375 5.425C15.3514 5.36667 15.5896 5.31806 15.8521 5.27917C16.1146 5.24028 16.3528 5.22083 16.5667 5.22083C17.85 5.22083 18.9 5.62917 19.7167 6.44583C20.5333 7.2625 20.9417 8.3125 20.9417 9.59583ZM2.85834 21.5833H18.025V20.5917C18.025 20.2806 17.9326 19.9792 17.7479 19.6875C17.5632 19.3958 17.3347 19.1917 17.0625 19.075C15.6625 18.4528 14.4861 18.0347 13.5333 17.8208C12.5806 17.6069 11.55 17.5 10.4417 17.5C9.33334 17.5 8.29792 17.6069 7.33542 17.8208C6.37292 18.0347 5.19167 18.4528 3.79167 19.075C3.51945 19.1917 3.29584 19.3958 3.12084 19.6875C2.94584 19.9792 2.85834 20.2806 2.85834 20.5917V21.5833ZM10.4417 12.2208C11.2 12.2208 11.8271 11.9729 12.3229 11.4771C12.8188 10.9812 13.0667 10.3542 13.0667 9.59583C13.0667 8.8375 12.8188 8.21042 12.3229 7.71458C11.8271 7.21875 11.2 6.97083 10.4417 6.97083C9.68334 6.97083 9.05625 7.21875 8.56042 7.71458C8.06459 8.21042 7.81667 8.8375 7.81667 9.59583C7.81667 10.3542 8.06459 10.9812 8.56042 11.4771C9.05625 11.9729 9.68334 12.2208 10.4417 12.2208Z" fill="#52596E"/>
</svg>
