<svg width="23" height="23" viewBox="0 0 23 23" fill="none" xmlns="http://www.w3.org/2000/svg">
<path d="M11.4998 21.0834C16.7926 21.0834 21.0832 16.7928 21.0832 11.5001C21.0832 6.20735 16.7926 1.91675 11.4998 1.91675C6.20711 1.91675 1.9165 6.20735 1.9165 11.5001C1.9165 16.7928 6.20711 21.0834 11.4998 21.0834Z" stroke="black" stroke-width="1.5" stroke-linecap="round" stroke-linejoin="round"/>
<path d="M8.71143 8.62506C8.93673 7.98457 9.38145 7.44449 9.9668 7.10048C10.5522 6.75646 11.2404 6.63071 11.9096 6.74549C12.5787 6.86027 13.1857 7.20818 13.623 7.7276C14.0602 8.24703 14.2995 8.90443 14.2985 9.58339C14.2985 11.5001 11.4235 12.4584 11.4235 12.4584V14.0897" stroke="black" stroke-width="1.5" stroke-linecap="round" stroke-linejoin="round"/>
<path d="M11.5 16.2917H11.5104" stroke="black" stroke-width="1.5" stroke-linecap="round" stroke-linejoin="round"/>
</svg>
