<svg width="28" height="28" viewBox="0 0 28 28" fill="none" xmlns="http://www.w3.org/2000/svg">
<path d="M4.08337 24.5C3.61671 24.5 3.20837 24.325 2.85837 23.975C2.50837 23.625 2.33337 23.2167 2.33337 22.75V8.37084C2.33337 7.90417 2.50837 7.49584 2.85837 7.14584C3.20837 6.79584 3.61671 6.62084 4.08337 6.62084H9.62504V4.08334C9.62504 3.61667 9.80004 3.20834 10.15 2.85834C10.5 2.50834 10.9084 2.33334 11.375 2.33334H16.625C17.0917 2.33334 17.5 2.50834 17.85 2.85834C18.2 3.20834 18.375 3.61667 18.375 4.08334V6.62084H23.9167C24.3834 6.62084 24.7917 6.79584 25.1417 7.14584C25.4917 7.49584 25.6667 7.90417 25.6667 8.37084V22.75C25.6667 23.2167 25.4917 23.625 25.1417 23.975C24.7917 24.325 24.3834 24.5 23.9167 24.5H4.08337ZM11.375 6.62084H16.625V4.08334H11.375V6.62084ZM4.08337 22.75H23.9167V8.37084H4.08337V22.75ZM4.08337 22.75V8.37084V22.75Z" fill="#52596E"/>
</svg>
