<svg width="28" height="28" viewBox="0 0 28 28" fill="none" xmlns="http://www.w3.org/2000/svg">
<path d="M23.625 16.9458L21.5542 14.875L22.4 14.0292C22.5556 13.8736 22.7597 13.7958 23.0125 13.7958C23.2653 13.7958 23.4694 13.8736 23.625 14.0292L24.4708 14.875C24.6264 15.0306 24.7042 15.2347 24.7042 15.4875C24.7042 15.7403 24.6264 15.9444 24.4708 16.1L23.625 16.9458ZM14 24.5V22.4292L20.3 16.1292L22.3708 18.2L16.0708 24.5H14ZM3.5 18.375V16.625H12.25V18.375H3.5ZM3.5 13.5625V11.8125H17.2083V13.5625H3.5ZM3.5 8.75V7H17.2083V8.75H3.5Z" fill="#52596E"/>
</svg>
