<svg width="18" height="19" viewBox="0 0 18 19" fill="none" xmlns="http://www.w3.org/2000/svg">
<path fill-rule="evenodd" clip-rule="evenodd" d="M7.00565 1.18832C4.51167 1.72975 2.13245 3.58941 1.00189 5.88129C-0.333962 8.58915 -0.333962 11.2763 1.00189 13.9841C2.14728 16.306 4.51867 18.1423 7.07002 18.683C13.3892 20.0224 19.0345 14.3741 17.6958 8.0515C16.6838 3.27186 11.8132 0.14494 7.00565 1.18832ZM10.8314 2.64992C11.4288 2.80282 12.2565 3.12191 12.6708 3.35909C13.6356 3.91144 14.9683 5.24479 15.5203 6.21018C16.0482 7.13315 16.5069 8.86414 16.5069 9.93272C16.5069 11.0013 16.0482 12.7323 15.5203 13.6553C14.9683 14.6207 13.6356 15.954 12.6708 16.5064C11.7483 17.0345 10.0182 17.4934 8.95023 17.4934C7.88222 17.4934 6.15217 17.0345 5.2297 16.5064C4.26482 15.954 2.93219 14.6207 2.38014 13.6553C1.85229 12.7323 1.39357 11.0013 1.39357 9.93272C1.39357 8.86414 1.85229 7.13315 2.38014 6.21018C2.93261 5.24409 4.2651 3.9113 5.23166 3.35797C6.1754 2.81766 7.77685 2.38978 8.89286 2.37969C9.36165 2.37549 10.2339 2.49703 10.8314 2.64992ZM9.90979 9.05106L7.68519 11.2497L6.73991 10.3112C6.14811 9.72368 5.67932 9.37267 5.48648 9.37267C5.07367 9.37267 4.68366 9.96436 4.86978 10.3084C5.12446 10.7791 7.51237 13.013 7.7609 13.013C8.04749 13.013 12.6561 8.50864 12.9551 7.93627C13.2406 7.38952 12.9061 6.85243 12.2801 6.85243C12.2 6.85243 11.1334 7.84176 9.90979 9.05106Z" fill="#34A853"/>
</svg>
