<svg width="23" height="23" viewBox="0 0 23 23" fill="none" xmlns="http://www.w3.org/2000/svg">
<path opacity="0.01" fill-rule="evenodd" clip-rule="evenodd" d="M0 0V23H23V0H0Z" fill="#1C8FF8" fill-opacity="0.338428"/>
<path fill-rule="evenodd" clip-rule="evenodd" d="M11.2605 14.4187C12.7401 14.4187 13.9395 13.2193 13.9395 11.7398C13.9395 10.2602 12.7401 9.06079 11.2605 9.06079C9.78096 9.06079 8.58154 10.2602 8.58154 11.7398C8.58154 13.2193 9.78096 14.4187 11.2605 14.4187Z" stroke="black" stroke-width="1.5" stroke-linecap="round" stroke-linejoin="round"/>
<path fill-rule="evenodd" clip-rule="evenodd" d="M17.8686 14.4186C17.6254 14.9697 17.7421 15.6133 18.1632 16.0439L18.2168 16.0975C18.5522 16.4325 18.7406 16.887 18.7406 17.3611C18.7406 17.8351 18.5522 18.2896 18.2168 18.6246C17.8818 18.96 17.4273 19.1484 16.9532 19.1484C16.4792 19.1484 16.0247 18.96 15.6897 18.6246L15.6361 18.5711C15.2055 18.1499 14.5619 18.0332 14.0108 18.2764C13.471 18.5077 13.1202 19.0375 13.1178 19.6248V19.7766C13.1178 20.763 12.3182 21.5626 11.3319 21.5626C10.3455 21.5626 9.54587 20.763 9.54587 19.7766V19.6962C9.53172 19.0914 9.14927 18.5566 8.58144 18.3478C8.03038 18.1046 7.38678 18.2213 6.95619 18.6425L6.90261 18.6961C6.56762 19.0314 6.11305 19.2199 5.63903 19.2199C5.16501 19.2199 4.71044 19.0314 4.37544 18.6961C4.04008 18.3611 3.85164 17.9065 3.85164 17.4325C3.85164 16.9585 4.04008 16.5039 4.37544 16.1689L4.42902 16.1153C4.85022 15.6847 4.96692 15.0411 4.72371 14.4901C4.49237 13.9503 3.96256 13.5994 3.37529 13.5971H3.22348C2.23711 13.5971 1.4375 12.7975 1.4375 11.8111C1.4375 10.8247 2.23711 10.0251 3.22348 10.0251H3.30385C3.9087 10.011 4.44343 9.62852 4.65227 9.06069C4.89548 8.50963 4.77878 7.86603 4.35759 7.43544L4.30401 7.38186C3.96864 7.04687 3.7802 6.59229 3.7802 6.11828C3.7802 5.64426 3.96864 5.18969 4.30401 4.85469C4.639 4.51933 5.09357 4.33089 5.56759 4.33089C6.04161 4.33089 6.49618 4.51933 6.83117 4.85469L6.88475 4.90827C7.31534 5.32947 7.95894 5.44616 8.51 5.20296H8.58144C9.12123 4.97161 9.47209 4.44181 9.47443 3.85454V3.70273C9.47443 2.71636 10.274 1.91675 11.2604 1.91675C12.2468 1.91675 13.0464 2.71636 13.0464 3.70273V3.7831C13.0487 4.37037 13.3996 4.90017 13.9394 5.13152C14.4905 5.37472 15.1341 5.25803 15.5646 4.83683L15.6182 4.78325C15.9532 4.44789 16.4078 4.25945 16.8818 4.25945C17.3558 4.25945 17.8104 4.44789 18.1454 4.78325C18.4808 5.11825 18.6692 5.57282 18.6692 6.04684C18.6692 6.52085 18.4808 6.97543 18.1454 7.31042L18.0918 7.364C17.6706 7.79459 17.5539 8.43819 17.7971 8.98925V9.06069C18.0285 9.60048 18.5583 9.95134 19.1455 9.95368H19.2973C20.2837 9.95368 21.0833 10.7533 21.0833 11.7397C21.0833 12.726 20.2837 13.5256 19.2973 13.5256H19.217C18.6297 13.528 18.0999 13.8789 17.8686 14.4186Z" stroke="black" stroke-width="1.5" stroke-linecap="round" stroke-linejoin="round"/>
</svg>
