<svg width="12" height="13" viewBox="0 0 12 13" fill="none" xmlns="http://www.w3.org/2000/svg">
    <path
        d="M11.6312 6.29485L9.69594 8.17918L10.1539 10.8432C10.2327 11.3044 10.0472 11.7591 9.66804 12.0316C9.29216 12.3073 8.80138 12.3418 8.38774 12.1218L5.9995 10.8662L3.60633 12.1235C3.42906 12.217 3.23537 12.2663 3.04333 12.2663C2.79219 12.2663 2.54434 12.1875 2.33096 12.0332C1.95343 11.7591 1.76796 11.3044 1.84674 10.8432L2.30305 8.17918L0.367837 6.29485C0.0329904 5.96985 -0.0835494 5.4922 0.0608943 5.04738C0.206979 4.6042 0.584503 4.28905 1.04574 4.22339L3.71466 3.83438L4.91125 1.41002C5.11971 0.993107 5.53662 0.733765 5.9995 0.733765H6.00278C6.4673 0.735406 6.88422 0.994748 7.08939 1.41167L8.28598 3.83438L10.9598 4.22503C11.4161 4.28905 11.7937 4.6042 11.9381 5.04738C12.0842 5.4922 11.9676 5.96985 11.6312 6.29485Z"
        fill="#240DFF" />
</svg>
