<svg width="16" height="12" viewBox="0 0 16 12" fill="none" xmlns="http://www.w3.org/2000/svg">
<path fill-rule="evenodd" clip-rule="evenodd" d="M10.7726 3.06347C10.7726 4.72915 9.44467 6.06475 7.78862 6.06475C6.13257 6.06475 4.80469 4.72915 4.80469 3.06347C4.80469 1.39716 6.13257 0.0628344 7.78862 0.0628344C9.44467 0.0628344 10.7726 1.39716 10.7726 3.06347ZM7.7886 11.4052C5.35626 11.4052 3.27937 11.0196 3.27937 9.47718C3.27937 7.93408 5.34293 7.53442 7.7886 7.53442C10.2209 7.53442 12.2978 7.92004 12.2978 9.46313C12.2978 11.0056 10.2343 11.4052 7.7886 11.4052ZM12.0477 3.11768C12.0477 3.9668 11.7944 4.75782 11.3501 5.41541C11.3044 5.48308 11.345 5.57438 11.4256 5.58842C11.5367 5.60757 11.6516 5.61843 11.7684 5.62162C12.9331 5.65226 13.9786 4.89827 14.2674 3.76314C14.6952 2.07703 13.439 0.563307 11.8395 0.563307C11.6656 0.563307 11.4993 0.581821 11.3374 0.61502C11.3152 0.620127 11.2917 0.630342 11.279 0.650134C11.2638 0.674394 11.2752 0.706954 11.2904 0.728023C11.7709 1.4054 12.0477 2.23153 12.0477 3.11768ZM13.9767 6.80615C14.7594 6.96001 15.2741 7.27412 15.4874 7.7306C15.6677 8.10536 15.6677 8.54013 15.4874 8.91426C15.1612 9.62228 14.1094 9.84956 13.7006 9.9083C13.6162 9.92107 13.5483 9.84765 13.5572 9.76274C13.766 7.80083 12.1049 6.87063 11.6751 6.65675C11.6567 6.64718 11.6529 6.63249 11.6548 6.62356C11.6561 6.61717 11.6637 6.60696 11.6777 6.60504C12.6076 6.5878 13.6073 6.71549 13.9767 6.80615ZM3.88116 5.62122C3.99795 5.61802 4.1122 5.60781 4.22392 5.58802C4.30453 5.57397 4.34516 5.48268 4.29945 5.415C3.85513 4.75741 3.60187 3.9664 3.60187 3.11728C3.60187 2.23113 3.87862 1.405 4.35912 0.727619C4.37435 0.706551 4.38515 0.673991 4.37055 0.64973C4.35785 0.630577 4.33373 0.619724 4.31215 0.614617C4.14965 0.581418 3.98335 0.562903 3.80943 0.562903C2.20987 0.562903 0.953714 2.07663 1.38217 3.76273C1.67098 4.89787 2.7164 5.65186 3.88116 5.62122ZM3.99469 6.62332C3.99659 6.6329 3.99278 6.64694 3.97501 6.65716C3.54465 6.87103 1.88353 7.80123 2.09236 9.7625C2.10124 9.84805 2.03396 9.92083 1.94954 9.9087C1.54077 9.84997 0.488993 9.62268 0.162734 8.91466C-0.0181684 8.5399 -0.0181684 8.10576 0.162734 7.731C0.376008 7.27452 0.890152 6.96041 1.67279 6.80591C2.04285 6.71589 3.04194 6.58821 3.97247 6.60544C3.98644 6.60736 3.99342 6.61757 3.99469 6.62332Z" fill="#666262" fill-opacity="0.8"/>
</svg>
