<svg width="18" height="18" viewBox="0 0 18 18" fill="none" xmlns="http://www.w3.org/2000/svg">
    <path fill-rule="evenodd" clip-rule="evenodd"
        d="M8.50666 15.8228C4.59357 15.8228 1.41772 12.654 1.41772 8.73385C1.41772 4.82076 4.59357 1.64491 8.50666 1.64491C12.4268 1.64491 15.5956 4.82076 15.5956 8.73385C15.5956 12.654 12.4268 15.8228 8.50666 15.8228ZM10.7676 11.3639C10.8527 11.4135 10.9449 11.4419 11.0441 11.4419C11.2213 11.4419 11.3985 11.3497 11.4978 11.1796C11.6467 10.9315 11.5687 10.6054 11.3135 10.4494L8.78982 8.94657V5.67149C8.78982 5.37375 8.54879 5.13982 8.25815 5.13982C7.9675 5.13982 7.72648 5.37375 7.72648 5.67149V9.2514C7.72648 9.43571 7.82572 9.60584 7.98877 9.70509L10.7676 11.3639Z"
        fill="#666262" />
</svg>
