<svg width="18" height="18" viewBox="0 0 18 18" fill="none" xmlns="http://www.w3.org/2000/svg">
<path fill-rule="evenodd" clip-rule="evenodd" d="M1.32309 0.278993C1.01366 0.430155 0.589372 0.791412 0.380229 1.08185C0.00154291 1.60785 0 1.63978 0 8.99827C0 16.3688 0.000857081 16.3877 0.382286 16.9176C1.15834 17.9954 1.19469 18 9 18C16.8053 18 16.8417 17.9954 17.6177 16.9176C17.9991 16.3877 18 16.3688 18 8.99827C18 1.62772 17.9991 1.60887 17.6177 1.07896C16.8408 0.000109496 16.8093 -0.0037968 8.97411 0.000449303C2.79583 0.00384618 1.81354 0.0395135 1.32309 0.278993ZM14.2164 4.84915C14.7797 5.40743 14.675 5.54908 10.2857 10.1668C7.81029 12.7712 7.11137 13.4132 6.75223 13.4137C6.414 13.414 5.96297 13.0618 4.90937 11.9744C3.3804 10.3966 3.18926 9.89641 3.93137 9.41473C4.46023 9.07131 4.75131 9.2155 5.86491 10.3721L6.69891 11.2383L8.07857 9.821C8.83749 9.04158 10.2615 7.54746 11.2435 6.50072C13.1153 4.50522 13.5982 4.23687 14.2164 4.84915Z" fill="#52596E" fill-opacity="0.38"/>
</svg>
