<svg width="28" height="28" viewBox="0 0 28 28" fill="none" xmlns="http://www.w3.org/2000/svg">
<path d="M14.0001 18.8717C13.7473 18.8717 13.5383 18.7891 13.373 18.6238C13.2077 18.4585 13.1251 18.2495 13.1251 17.9967V8.05091L10.2376 10.9384C10.0626 11.1134 9.85841 11.196 9.62508 11.1863C9.39175 11.1766 9.18758 11.0842 9.01258 10.9092C8.83758 10.7342 8.75008 10.5252 8.75008 10.2822C8.75008 10.0391 8.83758 9.83008 9.01258 9.65508L13.3876 5.28008C13.4848 5.18286 13.582 5.1148 13.6792 5.07591C13.7765 5.03702 13.8834 5.01758 14.0001 5.01758C14.1167 5.01758 14.2237 5.03702 14.3209 5.07591C14.4181 5.1148 14.5154 5.18286 14.6126 5.28008L19.0167 9.68424C19.1917 9.85924 19.2792 10.0634 19.2792 10.2967C19.2792 10.5301 19.1917 10.7342 19.0167 10.9092C18.8417 11.0842 18.6327 11.1717 18.3897 11.1717C18.1466 11.1717 17.9376 11.0842 17.7626 10.9092L14.8751 8.05091V17.9967C14.8751 18.2495 14.7924 18.4585 14.6272 18.6238C14.4619 18.7891 14.2529 18.8717 14.0001 18.8717ZM6.41675 23.3342C5.95008 23.3342 5.54175 23.1592 5.19175 22.8092C4.84175 22.4592 4.66675 22.0509 4.66675 21.5842V18.2884C4.66675 18.0356 4.74939 17.8266 4.91466 17.6613C5.07994 17.496 5.28897 17.4134 5.54175 17.4134C5.79453 17.4134 6.00355 17.496 6.16883 17.6613C6.33411 17.8266 6.41675 18.0356 6.41675 18.2884V21.5842H21.5834V18.2884C21.5834 18.0356 21.6661 17.8266 21.8313 17.6613C21.9966 17.496 22.2056 17.4134 22.4584 17.4134C22.7112 17.4134 22.9202 17.496 23.0855 17.6613C23.2508 17.8266 23.3334 18.0356 23.3334 18.2884V21.5842C23.3334 22.0509 23.1584 22.4592 22.8084 22.8092C22.4584 23.1592 22.0501 23.3342 21.5834 23.3342H6.41675Z" fill="#52596E"/>
</svg>
