<svg width="20" height="19" viewBox="0 0 20 19" fill="none" xmlns="http://www.w3.org/2000/svg">
<path d="M9.99935 8.9707C8.71602 8.9707 7.66602 8.56237 6.84935 7.7457C6.03268 6.92904 5.62435 5.87904 5.62435 4.5957C5.62435 3.31237 6.03268 2.26237 6.84935 1.4457C7.66602 0.629037 8.71602 0.220703 9.99935 0.220703C11.2827 0.220703 12.3327 0.629037 13.1493 1.4457C13.966 2.26237 14.3743 3.31237 14.3743 4.5957C14.3743 5.87904 13.966 6.92904 13.1493 7.7457C12.3327 8.56237 11.2827 8.9707 9.99935 8.9707ZM0.666016 18.3332V15.5915C0.666016 14.8526 0.850738 14.2207 1.22018 13.6957C1.58963 13.1707 2.06602 12.7721 2.64935 12.4999C3.95213 11.9165 5.20143 11.479 6.39727 11.1874C7.5931 10.8957 8.79379 10.7499 9.99935 10.7499C11.2049 10.7499 12.4007 10.9006 13.5868 11.202C14.773 11.5033 16.0174 11.936 17.3202 12.4999C17.923 12.7721 18.4091 13.1707 18.7785 13.6957C19.148 14.2207 19.3327 14.8526 19.3327 15.5915V18.3332H0.666016ZM2.41602 16.5832H17.5827V15.5915C17.5827 15.2804 17.4903 14.9839 17.3056 14.702C17.1209 14.42 16.8924 14.211 16.6202 14.0749C15.3757 13.4721 14.2382 13.0589 13.2077 12.8353C12.1771 12.6117 11.1077 12.4999 9.99935 12.4999C8.89102 12.4999 7.81185 12.6117 6.76185 12.8353C5.71185 13.0589 4.57435 13.4721 3.34935 14.0749C3.07713 14.211 2.85352 14.42 2.67852 14.702C2.50352 14.9839 2.41602 15.2804 2.41602 15.5915V16.5832ZM9.99935 7.2207C10.7577 7.2207 11.3848 6.97279 11.8806 6.47695C12.3764 5.98112 12.6243 5.35404 12.6243 4.5957C12.6243 3.83737 12.3764 3.21029 11.8806 2.71445C11.3848 2.21862 10.7577 1.9707 9.99935 1.9707C9.24102 1.9707 8.61393 2.21862 8.1181 2.71445C7.62227 3.21029 7.37435 3.83737 7.37435 4.5957C7.37435 5.35404 7.62227 5.98112 8.1181 6.47695C8.61393 6.97279 9.24102 7.2207 9.99935 7.2207Z" fill="#52596E"/>
</svg>
