<svg width="21" height="21" viewBox="0 0 21 21" fill="none" xmlns="http://www.w3.org/2000/svg">
<path fill-rule="evenodd" clip-rule="evenodd" d="M13.6505 7.53397C13.6505 9.43688 12.1335 10.9627 10.2416 10.9627C8.34964 10.9627 6.83262 9.43688 6.83262 7.53397C6.83262 5.63032 8.34964 4.10594 10.2416 4.10594C12.1335 4.10594 13.6505 5.63032 13.6505 7.53397ZM10.2417 17.0628C7.46287 17.0628 5.09017 16.6223 5.09017 14.8601C5.09017 13.0972 7.44764 12.6406 10.2417 12.6406C13.0204 12.6406 15.3931 13.0812 15.3931 14.8441C15.3931 16.6062 13.0357 17.0628 10.2417 17.0628ZM15.1075 7.59472C15.1075 8.56478 14.8181 9.46846 14.3105 10.2197C14.2583 10.297 14.3047 10.4013 14.3968 10.4174C14.5237 10.4393 14.655 10.4517 14.7884 10.4553C16.1191 10.4903 17.3134 9.62893 17.6433 8.33211C18.1321 6.40585 16.697 4.67652 14.8696 4.67652C14.6709 4.67652 14.4809 4.69768 14.296 4.7356C14.2706 4.74144 14.2438 4.75311 14.2293 4.77572C14.2119 4.80343 14.225 4.84063 14.2424 4.8647C14.7913 5.63856 15.1075 6.58236 15.1075 7.59472ZM17.3113 11.8101C18.2054 11.9858 18.7935 12.3447 19.0371 12.8662C19.2431 13.2943 19.2431 13.791 19.0371 14.2184C18.6644 15.0273 17.4628 15.287 16.9958 15.3541C16.8994 15.3686 16.8218 15.2848 16.832 15.1878C17.0705 12.9464 15.1728 11.8837 14.6819 11.6394C14.6609 11.6285 14.6565 11.6117 14.6587 11.6015C14.6601 11.5942 14.6688 11.5825 14.6848 11.5803C15.7471 11.5606 16.8892 11.7065 17.3113 11.8101ZM5.77797 10.4553C5.9114 10.4517 6.04193 10.44 6.16956 10.4174C6.26165 10.4013 6.30806 10.297 6.25585 10.2197C5.74824 9.46846 5.45891 8.56478 5.45891 7.59472C5.45891 6.58236 5.77507 5.63856 6.32401 4.8647C6.34142 4.84063 6.35375 4.80343 6.33707 4.77572C6.32256 4.75384 6.29501 4.74144 6.27035 4.7356C6.08471 4.69768 5.89472 4.67652 5.69603 4.67652C3.86865 4.67652 2.43357 6.40585 2.92305 8.33211C3.253 9.62893 4.44732 10.4903 5.77797 10.4553ZM5.90706 11.6007C5.90923 11.6117 5.90488 11.6277 5.88458 11.6394C5.39292 11.8837 3.4952 12.9464 3.73377 15.187C3.74393 15.2848 3.66706 15.3679 3.57062 15.3541C3.10362 15.287 1.90204 15.0273 1.52931 14.2184C1.32264 13.7903 1.32264 13.2943 1.52931 12.8662C1.77296 12.3447 2.36034 11.9858 3.25445 11.8093C3.67721 11.7065 4.8186 11.5606 5.88168 11.5803C5.89763 11.5825 5.90561 11.5942 5.90706 11.6007Z" fill="#666262" fill-opacity="0.8"/>
</svg>
