<svg width="28" height="28" viewBox="0 0 28 28" fill="none" xmlns="http://www.w3.org/2000/svg">
<path d="M13.9999 25.6673C12.3666 25.6673 10.8402 25.3611 9.42075 24.7486C8.00131 24.1361 6.76659 23.3048 5.71659 22.2548C4.66659 21.2048 3.8402 19.9652 3.23742 18.5361C2.63464 17.1069 2.33325 15.5757 2.33325 13.9423C2.33325 12.309 2.63464 10.7875 3.23742 9.37774C3.8402 7.96801 4.66659 6.73815 5.71659 5.68815C6.76659 4.63815 8.00131 3.81662 9.42075 3.22357C10.8402 2.63051 12.3666 2.33398 13.9999 2.33398C15.6333 2.33398 17.1596 2.63051 18.5791 3.22357C19.9985 3.81662 21.2333 4.63815 22.2833 5.68815C23.3333 6.73815 24.1596 7.96801 24.7624 9.37774C25.3652 10.7875 25.6666 12.309 25.6666 13.9423C25.6666 15.5757 25.3652 17.1069 24.7624 18.5361C24.1596 19.9652 23.3333 21.2048 22.2833 22.2548C21.2333 23.3048 19.9985 24.1361 18.5791 24.7486C17.1596 25.3611 15.6333 25.6673 13.9999 25.6673ZM18.6083 9.62565H22.9833C22.3416 8.28398 21.4617 7.16593 20.3437 6.27148C19.2256 5.37704 17.9374 4.7451 16.4791 4.37565C16.9652 5.0951 17.3784 5.87287 17.7187 6.70898C18.0589 7.5451 18.3555 8.51732 18.6083 9.62565ZM11.1999 9.62565H16.8583C16.6444 8.5951 16.2846 7.59857 15.7791 6.63607C15.2735 5.67357 14.6805 4.82287 13.9999 4.08398C13.3777 4.60898 12.8527 5.29926 12.4249 6.15482C11.9971 7.01037 11.5888 8.16732 11.1999 9.62565ZM4.43325 16.5965H9.07075C9.01242 16.0715 8.97839 15.6 8.96867 15.1819C8.95895 14.7638 8.95409 14.3507 8.95409 13.9423C8.95409 13.4562 8.96381 13.0236 8.98325 12.6444C9.0027 12.2652 9.04159 11.8423 9.09992 11.3757H4.43325C4.29714 11.8423 4.20478 12.2604 4.15617 12.6298C4.10756 12.9993 4.08325 13.4368 4.08325 13.9423C4.08325 14.4479 4.10756 14.9 4.15617 15.2986C4.20478 15.6972 4.29714 16.1298 4.43325 16.5965ZM11.5208 23.6257C11.0346 22.8868 10.6166 22.0895 10.2666 21.234C9.91659 20.3784 9.62492 19.4159 9.39159 18.3465H5.01659C5.75547 19.727 6.61103 20.8111 7.58325 21.5986C8.55547 22.3861 9.86797 23.0618 11.5208 23.6257ZM5.01659 9.62565H9.42075C9.63464 8.57565 9.90686 7.63746 10.2374 6.81107C10.568 5.98468 10.986 5.1826 11.4916 4.40482C10.0333 4.77426 8.75964 5.39648 7.67075 6.27148C6.58186 7.14648 5.69714 8.26454 5.01659 9.62565ZM13.9999 23.9757C14.6805 23.2757 15.2492 22.4736 15.7062 21.5694C16.1631 20.6652 16.5374 19.5909 16.8291 18.3465H11.1999C11.4721 19.5132 11.8367 20.5632 12.2937 21.4965C12.7506 22.4298 13.3194 23.2562 13.9999 23.9757ZM10.8791 16.5965H17.1499C17.2277 15.9937 17.2763 15.5027 17.2958 15.1236C17.3152 14.7444 17.3249 14.3507 17.3249 13.9423C17.3249 13.5534 17.3152 13.1791 17.2958 12.8194C17.2763 12.4597 17.2277 11.9784 17.1499 11.3757H10.8791C10.8013 11.9784 10.7527 12.4597 10.7333 12.8194C10.7138 13.1791 10.7041 13.5534 10.7041 13.9423C10.7041 14.3507 10.7138 14.7444 10.7333 15.1236C10.7527 15.5027 10.8013 15.9937 10.8791 16.5965ZM16.5083 23.5965C17.9083 23.1493 19.1673 22.4784 20.2853 21.584C21.4034 20.6895 22.3027 19.6104 22.9833 18.3465H18.6374C18.3846 19.3965 18.0881 20.3493 17.7478 21.2048C17.4076 22.0604 16.9944 22.8576 16.5083 23.5965ZM18.8999 16.5965H23.5666C23.7027 16.1298 23.7951 15.6972 23.8437 15.2986C23.8923 14.9 23.9166 14.4479 23.9166 13.9423C23.9166 13.4368 23.8923 12.9993 23.8437 12.6298C23.7951 12.2604 23.7027 11.8423 23.5666 11.3757H18.9291C18.9874 12.0562 19.0263 12.5763 19.0458 12.9361C19.0652 13.2958 19.0749 13.6312 19.0749 13.9423C19.0749 14.3701 19.0603 14.7736 19.0312 15.1527C19.002 15.5319 18.9583 16.0132 18.8999 16.5965Z" fill="#52596E"/>
</svg>
