<svg width="18" height="18" viewBox="0 0 18 18" fill="none" xmlns="http://www.w3.org/2000/svg">
<path fill-rule="evenodd" clip-rule="evenodd" d="M6.98827 0.205969C5.46993 0.530307 3.85592 1.43742 2.64869 2.64494C-0.878977 6.17348 -0.883454 11.7344 2.63862 15.2393C6.19189 18.7752 11.7206 18.7797 15.2501 15.2495C18.7795 11.7191 18.775 6.18901 15.2399 2.63487C13.0739 0.457128 10.0203 -0.441728 6.98827 0.205969ZM10.8272 1.66647C11.4244 1.81926 12.2686 2.14654 12.7031 2.39378C13.7131 2.96858 14.9211 4.17694 15.4958 5.18717C16.0406 6.14535 16.5006 7.86499 16.5006 8.94448C16.5006 10.024 16.0406 11.7436 15.4958 12.7018C14.9211 13.712 13.7131 14.9204 12.7031 15.4952C11.7451 16.0402 10.0259 16.5002 8.94669 16.5002C7.86746 16.5002 6.14825 16.0402 5.1903 15.4952C4.18032 14.9204 2.97225 13.712 2.3976 12.7018C1.85274 11.7436 1.39279 10.024 1.39279 8.94448C1.39279 8.50737 1.51771 7.66098 1.67046 7.06352C2.35381 4.39116 4.35797 2.36817 7.01079 1.67305C8.34251 1.32422 9.48133 1.32226 10.8272 1.66647ZM5.89715 5.8942C5.51218 6.27926 5.72201 6.73051 6.80264 7.8412L7.87613 8.94448L6.80264 10.0478C5.72201 11.1585 5.51218 11.6097 5.89715 11.9948C6.28212 12.3798 6.73325 12.17 7.84368 11.0891L8.94669 10.0153L10.0497 11.0891C11.1601 12.17 11.6113 12.3798 11.9962 11.9948C12.3812 11.6097 12.1714 11.1585 11.0907 10.0478L10.0172 8.94448L11.0907 7.8412C12.1714 6.73051 12.3812 6.27926 11.9962 5.8942C11.6113 5.50913 11.1601 5.71901 10.0497 6.79991L8.94669 7.87366L7.84368 6.79991C6.73325 5.71901 6.28212 5.50913 5.89715 5.8942Z" fill="#C20707"/>
</svg>
